<svg width="41" height="37" viewBox="0 0 41 37" fill="none" xmlns="http://www.w3.org/2000/svg">
<rect x="6.78125" y="11.2527" width="13.9395" height="11.5776" rx="1.5" fill="white" stroke="#6B8AFD"/>
<path d="M21.4336 12.3865C21.4336 12.0657 21.5875 11.7643 21.8475 11.5763L26.1388 8.47223C26.8 7.99392 27.7249 8.46637 27.7249 9.28248V24.8621C27.7249 25.6662 26.8238 26.1415 26.1602 25.6873L21.8689 22.7511C21.5965 22.5647 21.4336 22.2559 21.4336 21.9258V12.3865Z" fill="white"/>
<path d="M11.108 24.423C10.9582 23.7945 11.4347 23.1912 12.0807 23.1912H16.6824C17.1519 23.1912 17.5582 23.5178 17.659 23.9764L18.7881 29.1102C18.9254 29.7341 18.4503 30.325 17.8115 30.325H13.3041C12.8411 30.325 12.4387 30.0072 12.3314 29.5568L11.108 24.423Z" fill="white"/>
<path d="M30.123 17.1367H32.7773" stroke="white" stroke-width="1.3" stroke-linecap="round"/>
<path d="M29.5742 13.5176L31.4511 11.753" stroke="white" stroke-width="1.3" stroke-linecap="round"/>
<path d="M29.5742 20.7566L31.4511 22.5212" stroke="white" stroke-width="1.3" stroke-linecap="round"/>
</svg>
