<svg width="41" height="37" viewBox="0 0 41 37" fill="none" xmlns="http://www.w3.org/2000/svg">
<path fill-rule="evenodd" clip-rule="evenodd" d="M27.3411 16.9522L27.3413 16.9313L27.3413 16.9284C27.34 16.4739 26.9711 16.1059 26.5163 16.1059C22.0234 16.1059 18.3812 12.4636 18.3812 7.97073V7.64775C18.3812 7.19212 18.0118 6.82275 17.5562 6.82275C17.1005 6.82275 16.7312 7.19212 16.7312 7.64775V7.69089C16.7288 7.71663 16.7275 7.74272 16.7275 7.76909C16.7275 12.3066 13.0491 15.985 8.51159 15.985H8.39557L8.35235 15.9849C7.90049 15.9849 7.53348 16.3482 7.52742 16.7986L7.52734 16.81C7.52734 17.2657 7.89671 17.635 8.35234 17.635H8.39155C12.8664 17.6561 16.4875 21.2902 16.4875 25.7701V26.0931C16.4875 26.5487 16.8569 26.9181 17.3125 26.9181C17.7681 26.9181 18.1375 26.5487 18.1375 26.0931V26.0504C18.1399 26.0247 18.1412 25.9986 18.1412 25.9722C18.1412 21.4347 21.8196 17.7563 26.3571 17.7563H26.5163C26.965 17.7563 27.33 17.3982 27.3411 16.9522ZM12.5612 16.7683C12.5004 16.7957 12.4393 16.8225 12.3779 16.8487C12.4017 16.8595 12.4255 16.8703 12.4492 16.8813L12.5612 16.7683ZM22.3519 16.8281C22.3982 16.8499 22.4447 16.8713 22.4914 16.8924C22.3676 16.9452 22.2452 17.0004 22.1241 17.058L22.3519 16.8281ZM17.4051 21.8195L17.3372 21.888C17.3431 21.9017 17.349 21.9155 17.3549 21.9292C17.3714 21.8925 17.3881 21.856 17.4051 21.8195Z" fill="white"/>
<path d="M32.5284 25.638C32.5284 26.0936 32.159 26.463 31.7034 26.463L31.6266 26.463C29.704 26.463 28.1454 28.0215 28.1454 29.9441C28.1454 29.9674 28.1445 29.9904 28.1426 30.0131C28.1365 30.4635 27.7695 30.8268 27.3177 30.8268C26.862 30.8268 26.4927 30.4574 26.4927 30.0018V29.8489C26.4927 27.9576 24.968 26.4224 23.0808 26.4054H23.049C22.5934 26.4054 22.224 26.036 22.224 25.5804L22.224 25.5763C22.2261 25.1225 22.5947 24.7552 23.049 24.7552L23.0876 24.7554H23.1258C25.0484 24.7554 26.607 23.1968 26.607 21.2742C26.607 21.251 26.608 21.2281 26.6098 21.2054C26.6156 20.7547 26.9827 20.3911 27.4348 20.3911C27.8904 20.3911 28.2598 20.7605 28.2598 21.2161V21.369C28.2598 23.2709 29.8015 24.8126 31.7034 24.8126C32.1523 24.8126 32.5175 25.1712 32.5282 25.6175L32.5284 25.638Z" fill="white"/>
</svg>
