<svg width="41" height="37" viewBox="0 0 41 37" fill="none" xmlns="http://www.w3.org/2000/svg">
<path d="M9.14456 18.5363C8.80769 18.1984 8.80769 17.6507 9.14456 17.3129L18.4881 7.94333C18.825 7.60552 19.3712 7.60552 19.708 7.94333L20.8125 9.05091C21.1494 9.38872 21.1494 9.93642 20.8125 10.2742L11.469 19.6438C11.1321 19.9817 10.5859 19.9817 10.2491 19.6438L9.14456 18.5363Z" fill="white"/>
<path fill-rule="evenodd" clip-rule="evenodd" d="M8.5346 16.7013L17.8782 7.33167C18.5519 6.65605 19.6442 6.65605 20.318 7.33167L21.4225 8.43925C22.0962 9.11487 22.0962 10.2103 21.4225 10.8859L12.0789 20.2555C11.4052 20.9311 10.3128 20.9311 9.63911 20.2555L8.5346 19.1479C7.86086 18.4723 7.86086 17.3769 8.5346 16.7013ZM9.14456 17.3129C8.80769 17.6507 8.80769 18.1984 9.14456 18.5363L10.2491 19.6438C10.5859 19.9817 11.1321 19.9817 11.469 19.6438L20.8125 10.2742C21.1494 9.93642 21.1494 9.38872 20.8125 9.05091L19.708 7.94333C19.3712 7.60552 18.825 7.60552 18.4881 7.94333L9.14456 17.3129Z" fill="#6B8AFD"/>
<path d="M9.94267 14.2474C8.75404 13.0555 8.75404 11.1229 9.94267 9.931L11.1267 8.74366C12.3153 7.55172 14.2425 7.55172 15.4311 8.74366C15.6688 8.98205 15.6688 9.36856 15.4311 9.60695L10.8036 14.2474C10.5658 14.4858 10.1804 14.4858 9.94267 14.2474Z" fill="white"/>
<path d="M9.12297 10.2405C8.48443 9.60016 8.48443 8.56199 9.12297 7.92167C9.76151 7.28135 10.7968 7.28135 11.4353 7.92167L11.7056 8.19271C12.3441 8.83303 12.3441 9.8712 11.7056 10.5115C11.0671 11.1518 10.0318 11.1518 9.39325 10.5115L9.12297 10.2405Z" fill="white"/>
<path d="M14.2469 21.9687C13.3647 20.9393 13.4226 19.4021 14.3797 18.4423L19.4619 13.3459C20.3983 12.4069 21.8905 12.3283 22.9199 13.1638L31.0695 19.7784C32.2638 20.7478 32.3578 22.541 31.2713 23.6305L24.8549 30.0649C23.7899 31.1328 22.044 31.0667 21.0624 29.9213L14.2469 21.9687Z" fill="white"/>
<path fill-rule="evenodd" clip-rule="evenodd" d="M19.2492 21.6422C18.9966 21.3888 18.9966 20.9781 19.2492 20.7247L21.8892 18.0774C22.1418 17.824 22.5515 17.824 22.8041 18.0774C23.0568 18.3307 23.0568 18.7415 22.8041 18.9949L20.1642 21.6422C19.9115 21.8955 19.5019 21.8955 19.2492 21.6422Z" fill="#6B8AFD"/>
<path fill-rule="evenodd" clip-rule="evenodd" d="M21.424 23.823C21.1713 23.5697 21.1713 23.1589 21.424 22.9055L24.0639 20.2582C24.3166 20.0048 24.7262 20.0048 24.9789 20.2582C25.2315 20.5115 25.2315 20.9223 24.9789 21.1757L22.3389 23.823C22.0863 24.0764 21.6766 24.0764 21.424 23.823Z" fill="#6B8AFD"/>
<path fill-rule="evenodd" clip-rule="evenodd" d="M23.5987 26.0038C23.3461 25.7505 23.3461 25.3397 23.5987 25.0864L26.2387 22.439C26.4914 22.1857 26.901 22.1857 27.1536 22.439C27.4063 22.6924 27.4063 23.1031 27.1536 23.3565L24.5137 26.0038C24.261 26.2572 23.8514 26.2572 23.5987 26.0038Z" fill="#6B8AFD"/>
</svg>
