<svg width="41" height="37" viewBox="0 0 41 37" fill="none" xmlns="http://www.w3.org/2000/svg">
<path d="M14.583 21.4779C14.2535 21.1432 14.2565 20.6034 14.5898 20.2724L20.6245 14.2785C20.9577 13.9475 21.4951 13.9505 21.8246 14.2853L30.1476 22.7399C30.4771 23.0747 30.4741 23.6144 30.1408 23.9455L24.1062 29.9393C23.7729 30.2703 23.2355 30.2673 22.906 29.9325L14.583 21.4779Z" fill="white"/>
<path fill-rule="evenodd" clip-rule="evenodd" d="M14.1304 21.9275C13.5537 21.3416 13.559 20.3971 14.1422 19.8178L20.1769 13.8239C20.7602 13.2446 21.7005 13.2499 22.2772 13.8358L30.6002 22.2904C31.1769 22.8762 31.1716 23.8208 30.5884 24.4001L24.5537 30.3939C23.9704 30.9732 23.0301 30.9679 22.4534 30.3821L14.1304 21.9275ZM15.0373 20.727C14.954 20.8098 14.9532 20.9447 15.0356 21.0284L23.3586 29.483C23.441 29.5667 23.5753 29.5674 23.6586 29.4847L29.6933 23.4908C29.7766 23.4081 29.7774 23.2731 29.695 23.1894L21.372 14.7348C21.2897 14.6512 21.1553 14.6504 21.072 14.7332L15.0373 20.727Z" fill="white"/>
<path d="M15.8034 21.8042C15.4739 21.4694 15.4769 20.9297 15.8102 20.5986L20.9093 15.5341C21.2426 15.203 21.7799 15.2061 22.1095 15.5408L22.5815 16.0203C22.9111 16.3551 22.908 16.8948 22.5747 17.2259L17.4756 22.2905C17.1424 22.6215 16.605 22.6185 16.2755 22.2837L15.8034 21.8042Z" fill="#6B8AFD"/>
<path d="M9.91105 14.4564C9.68057 14.2223 9.60493 13.8758 9.71675 13.5663L11.7181 8.02652C11.9307 7.43806 12.6812 7.2728 13.1194 7.71793L17.2226 11.8861C17.5522 12.2209 17.5492 12.7606 17.2159 13.0917L13.4466 16.8355C13.1133 17.1665 12.576 17.1635 12.2464 16.8287L9.91105 14.4564Z" fill="white"/>
<path fill-rule="evenodd" clip-rule="evenodd" d="M12.6668 8.16747C12.5572 8.05618 12.3696 8.0975 12.3164 8.24461L10.3151 13.7843C10.2871 13.8617 10.306 13.9484 10.3637 14.0069L12.699 16.3792C12.7814 16.4629 12.9157 16.4636 12.999 16.3809L16.7684 12.6371C16.8517 12.5543 16.8524 12.4194 16.77 12.3357L12.6668 8.16747ZM11.1198 7.80842C11.4918 6.77863 12.8051 6.48941 13.572 7.26839L17.6752 11.4366C18.252 12.0224 18.2467 12.967 17.6634 13.5463L13.8941 17.2901C13.3109 17.8694 12.3705 17.8641 11.7938 17.2783L9.45845 14.906C9.0551 14.4962 8.92273 13.8898 9.11842 13.3482L11.1198 7.80842Z" fill="white"/>
</svg>
