<svg width="32" height="36" viewBox="0 0 32 36" fill="none" xmlns="http://www.w3.org/2000/svg">
<mask id="path-1-outside-1_945_6579" maskUnits="userSpaceOnUse" x="0.625" y="0.729492" width="31" height="35" fill="black">
<rect fill="white" x="0.625" y="0.729492" width="31" height="35"/>
<path fill-rule="evenodd" clip-rule="evenodd" d="M6.46045 4.72949C6.46045 4.17721 6.90816 3.72949 7.46045 3.72949H9.21045C9.76273 3.72949 10.2104 4.17721 10.2104 4.72949V6.47949C10.2104 7.03178 9.76273 7.47949 9.21045 7.47949H23.0396C22.4873 7.47949 22.0396 7.03178 22.0396 6.47949V4.72949C22.0396 4.17721 22.4873 3.72949 23.0396 3.72949H24.7896C25.3418 3.72949 25.7896 4.17721 25.7896 4.72949V6.47949C25.7896 7.03178 25.3418 7.47949 24.7896 7.47949H27.625C28.1773 7.47949 28.625 7.92721 28.625 8.47949V31.4795C28.625 32.0318 28.1773 32.4795 27.625 32.4795H4.625C4.07272 32.4795 3.625 32.0318 3.625 31.4795V8.47949C3.625 7.92721 4.07272 7.47949 4.625 7.47949H7.46045C6.90816 7.47949 6.46045 7.03178 6.46045 6.47949V4.72949Z"/>
</mask>
<path fill-rule="evenodd" clip-rule="evenodd" d="M6.46045 4.72949C6.46045 4.17721 6.90816 3.72949 7.46045 3.72949H9.21045C9.76273 3.72949 10.2104 4.17721 10.2104 4.72949V6.47949C10.2104 7.03178 9.76273 7.47949 9.21045 7.47949H23.0396C22.4873 7.47949 22.0396 7.03178 22.0396 6.47949V4.72949C22.0396 4.17721 22.4873 3.72949 23.0396 3.72949H24.7896C25.3418 3.72949 25.7896 4.17721 25.7896 4.72949V6.47949C25.7896 7.03178 25.3418 7.47949 24.7896 7.47949H27.625C28.1773 7.47949 28.625 7.92721 28.625 8.47949V31.4795C28.625 32.0318 28.1773 32.4795 27.625 32.4795H4.625C4.07272 32.4795 3.625 32.0318 3.625 31.4795V8.47949C3.625 7.92721 4.07272 7.47949 4.625 7.47949H7.46045C6.90816 7.47949 6.46045 7.03178 6.46045 6.47949V4.72949Z" fill="#6B8AFD"/>
<path d="M7.46045 0.729492C5.25131 0.729492 3.46045 2.52035 3.46045 4.72949H9.46045C9.46045 5.83406 8.56502 6.72949 7.46045 6.72949V0.729492ZM9.21045 0.729492H7.46045V6.72949H9.21045V0.729492ZM13.2104 4.72949C13.2104 2.52035 11.4196 0.729492 9.21045 0.729492V6.72949C8.10588 6.72949 7.21045 5.83406 7.21045 4.72949H13.2104ZM13.2104 6.47949V4.72949H7.21045V6.47949H13.2104ZM9.21045 10.4795C11.4196 10.4795 13.2104 8.68863 13.2104 6.47949H7.21045C7.21045 5.37492 8.10588 4.47949 9.21045 4.47949V10.4795ZM23.0396 4.47949H9.21045V10.4795H23.0396V4.47949ZM23.0396 4.47949C24.1441 4.47949 25.0396 5.37492 25.0396 6.47949H19.0396C19.0396 8.68863 20.8304 10.4795 23.0396 10.4795V4.47949ZM25.0396 6.47949V4.72949H19.0396V6.47949H25.0396ZM25.0396 4.72949C25.0396 5.83406 24.1441 6.72949 23.0396 6.72949V0.729492C20.8304 0.729492 19.0396 2.52035 19.0396 4.72949H25.0396ZM23.0396 6.72949H24.7896V0.729492H23.0396V6.72949ZM24.7896 6.72949C23.685 6.72949 22.7896 5.83406 22.7896 4.72949H28.7896C28.7896 2.52035 26.9987 0.729492 24.7896 0.729492V6.72949ZM22.7896 4.72949V6.47949H28.7896V4.72949H22.7896ZM22.7896 6.47949C22.7896 5.37492 23.685 4.47949 24.7896 4.47949V10.4795C26.9987 10.4795 28.7896 8.68863 28.7896 6.47949H22.7896ZM27.625 4.47949H24.7896V10.4795H27.625V4.47949ZM31.625 8.47949C31.625 6.27035 29.8341 4.47949 27.625 4.47949V10.4795C26.5204 10.4795 25.625 9.58406 25.625 8.47949H31.625ZM31.625 31.4795V8.47949H25.625V31.4795H31.625ZM27.625 35.4795C29.8341 35.4795 31.625 33.6886 31.625 31.4795H25.625C25.625 30.3749 26.5204 29.4795 27.625 29.4795V35.4795ZM4.625 35.4795H27.625V29.4795H4.625V35.4795ZM0.625 31.4795C0.625 33.6886 2.41586 35.4795 4.625 35.4795V29.4795C5.72957 29.4795 6.625 30.3749 6.625 31.4795H0.625ZM0.625 8.47949V31.4795H6.625V8.47949H0.625ZM4.625 4.47949C2.41586 4.47949 0.625 6.27036 0.625 8.47949H6.625C6.625 9.58406 5.72957 10.4795 4.625 10.4795V4.47949ZM7.46045 4.47949H4.625V10.4795H7.46045V4.47949ZM3.46045 6.47949C3.46045 8.68863 5.25131 10.4795 7.46045 10.4795V4.47949C8.56502 4.47949 9.46045 5.37492 9.46045 6.47949H3.46045ZM3.46045 4.72949V6.47949H9.46045V4.72949H3.46045Z" fill="white" mask="url(#path-1-outside-1_945_6579)"/>
<rect x="3.625" y="7.47949" width="24.9999" height="6.72182" rx="1" fill="#B6CBFF"/>
<rect x="7.00049" y="18.6982" width="3.16265" height="3.16265" rx="1" fill="#B6CBFF"/>
<rect x="7.00049" y="24.5312" width="3.16265" height="3.16265" rx="1" fill="#B6CBFF"/>
<rect x="12.0298" y="18.6982" width="3.16265" height="3.16265" rx="1" fill="#B6CBFF"/>
<rect x="12.0298" y="24.5312" width="3.16265" height="3.16265" rx="1" fill="#B6CBFF"/>
<rect x="17.0581" y="18.6982" width="3.16265" height="3.16265" rx="1" fill="#B6CBFF"/>
<rect x="17.0581" y="24.5312" width="3.16265" height="3.16265" rx="1" fill="#B6CBFF"/>
<rect x="22.0874" y="18.6982" width="3.16265" height="3.16265" rx="1" fill="#B6CBFF"/>
<rect x="22.0874" y="24.5312" width="3.16265" height="3.16265" rx="1" fill="#B6CBFF"/>
</svg>
