<svg width="26" height="30" viewBox="0 0 26 30" fill="none" xmlns="http://www.w3.org/2000/svg">
<rect x="0.625" y="4.61523" width="25" height="25" rx="1" fill="#6B8AFD"/>
<rect x="0.625" y="4.61523" width="24.9999" height="6.72182" rx="1" fill="#B6CBFF"/>
<rect x="3.46045" y="0.865234" width="3.75" height="3.75" rx="1" fill="#6B8AFD"/>
<rect x="19.0396" y="0.865234" width="3.75" height="3.75" rx="1" fill="#6B8AFD"/>
<rect x="4.00049" y="15.8345" width="3.16265" height="3.16265" rx="1" fill="#B6CBFF"/>
<rect x="4.00049" y="21.667" width="3.16265" height="3.16265" rx="1" fill="#B6CBFF"/>
<rect x="9.02979" y="15.8345" width="3.16265" height="3.16265" rx="1" fill="#B6CBFF"/>
<rect x="9.02979" y="21.667" width="3.16265" height="3.16265" rx="1" fill="#B6CBFF"/>
<rect x="14.0581" y="15.8345" width="3.16265" height="3.16265" rx="1" fill="#B6CBFF"/>
<rect x="14.0581" y="21.667" width="3.16265" height="3.16265" rx="1" fill="#B6CBFF"/>
<rect x="19.0874" y="15.8345" width="3.16265" height="3.16265" rx="1" fill="#B6CBFF"/>
<rect x="19.0874" y="21.667" width="3.16265" height="3.16265" rx="1" fill="#B6CBFF"/>
</svg>
