<svg width="98" height="51" viewBox="0 0 98 51" fill="none" xmlns="http://www.w3.org/2000/svg">
<path fill-rule="evenodd" clip-rule="evenodd" d="M58.0203 9.84071L48.4879 1L38.9555 9.84071H9C4.58172 9.84071 1 13.4224 1 17.8407V42C1 46.4183 4.58172 50 9 50H89C93.4183 50 97 46.4183 97 42V17.8407C97 13.4224 93.4183 9.84071 89 9.84071H58.0203Z" fill="#404A58"/>
<path d="M48.4879 1L48.7599 0.706717L48.4879 0.454452L48.2159 0.706717L48.4879 1ZM58.0203 9.84071L57.7483 10.134L57.8634 10.2407H58.0203V9.84071ZM38.9555 9.84071V10.2407H39.1124L39.2275 10.134L38.9555 9.84071ZM48.2159 1.29328L57.7483 10.134L58.2923 9.54743L48.7599 0.706717L48.2159 1.29328ZM39.2275 10.134L48.7599 1.29328L48.2159 0.706717L38.6835 9.54743L39.2275 10.134ZM9 10.2407H38.9555V9.44071H9V10.2407ZM1.4 17.8407C1.4 13.6433 4.80264 10.2407 9 10.2407V9.44071C4.36081 9.44071 0.6 13.2015 0.6 17.8407H1.4ZM1.4 42V17.8407H0.6V42H1.4ZM9 49.6C4.80263 49.6 1.4 46.1974 1.4 42H0.6C0.6 46.6392 4.36081 50.4 9 50.4V49.6ZM89 49.6H9V50.4H89V49.6ZM96.6 42C96.6 46.1974 93.1974 49.6 89 49.6V50.4C93.6392 50.4 97.4 46.6392 97.4 42H96.6ZM96.6 17.8407V42H97.4V17.8407H96.6ZM89 10.2407C93.1974 10.2407 96.6 13.6433 96.6 17.8407H97.4C97.4 13.2015 93.6392 9.44071 89 9.44071V10.2407ZM58.0203 10.2407H89V9.44071H58.0203V10.2407Z" fill="#4A6285"/>
</svg>
