<svg width="41" height="37" viewBox="0 0 41 37" fill="none" xmlns="http://www.w3.org/2000/svg">
<rect x="7.62695" y="16.4016" width="24.8042" height="13.1736" rx="1.25" fill="white" stroke="#6B8AFD" stroke-width="1.5"/>
<path d="M6.7793 11.1074C6.7793 10.4171 7.33894 9.85742 8.0293 9.85742H32.0293C32.7197 9.85742 33.2793 10.4171 33.2793 11.1074V17.3388C33.2793 17.9343 32.8591 18.4471 32.2752 18.5643L20.2752 20.9724C20.1129 21.005 19.9457 21.005 19.7834 20.9724L7.78336 18.5643C7.19945 18.4471 6.7793 17.9343 6.7793 17.3388V11.1074Z" fill="white" stroke="#6B8AFD" stroke-width="1.5"/>
<path d="M13.8828 10.8904V8.32495C13.8828 7.77267 14.3305 7.32495 14.8828 7.32495H25.1767C25.729 7.32495 26.1767 7.77267 26.1767 8.32495V10.8904" stroke="white" stroke-width="1.5" stroke-linecap="round"/>
<rect x="16.957" y="18.1528" width="6.14437" height="4.83579" rx="1" fill="#6B8AFD"/>
</svg>
