<svg width="41" height="37" viewBox="0 0 41 37" fill="none" xmlns="http://www.w3.org/2000/svg">
<path d="M17.7174 13.8316L15.7254 15.7803C15.4019 16.0968 15.4051 16.6183 15.7323 16.9308L22.494 23.3869C22.8059 23.6847 23.2977 23.6817 23.6059 23.3801L25.5658 21.4625C25.8767 21.1582 26.3738 21.1582 26.6848 21.4625L31.4449 26.1201C31.7656 26.4339 31.7656 26.9499 31.4449 27.2637L28.1065 30.5302C27.918 30.7147 27.6457 30.7941 27.3876 30.7395C13.6161 27.8265 8.83132 17.3343 8.07796 12.0456C8.04326 11.8021 8.13203 11.5617 8.30786 11.3897L11.7898 7.98275C12.1007 7.67849 12.5978 7.67849 12.9087 7.98275L17.7175 12.6879C18.0382 13.0017 18.0382 13.5178 17.7174 13.8316Z" fill="white"/>
<path d="M21.7559 10.9111V10.9111C25.3086 10.9111 28.1886 13.7912 28.1886 17.3439V17.7683" stroke="white" stroke-width="1.2" stroke-linecap="round"/>
<path d="M22.9082 6.82495V6.82495C27.9452 6.82495 32.0286 10.9083 32.0286 15.9453V16.547" stroke="white" stroke-width="1.2" stroke-linecap="round"/>
</svg>
