<svg width="41" height="37" viewBox="0 0 41 37" fill="none" xmlns="http://www.w3.org/2000/svg">
<path d="M32.2793 19.075V20.7388C32.2793 22.8372 30.9266 24.6963 28.93 25.342C27.6522 25.7552 26.2505 25.4288 25.2867 24.4936L23.865 23.1139C23.4175 22.6797 22.7058 22.6797 22.2583 23.1139L20.9872 24.3473C20.5263 24.7946 20.5263 25.5345 20.9872 25.9818L22.4578 27.4088C22.8438 27.7834 23.0616 28.2983 23.0616 28.8361C23.0616 29.9345 22.1712 30.825 21.0728 30.825H19.5349C13.0425 30.825 7.7793 25.5618 7.7793 19.0693V18.825C7.7793 12.1975 13.1519 6.82495 19.7793 6.82495H20.0293C26.7948 6.82495 32.2793 12.3095 32.2793 19.075Z" fill="white"/>
<ellipse cx="14.6742" cy="14.9256" rx="1.52769" ry="1.48244" fill="#6B8AFD"/>
<ellipse cx="19.1351" cy="12.334" rx="1.52769" ry="1.48244" fill="#6B8AFD"/>
<ellipse cx="24.43" cy="13.4431" rx="1.52769" ry="1.48244" fill="#6B8AFD"/>
<ellipse cx="27.0453" cy="17.4844" rx="1.52769" ry="1.48244" fill="#6B8AFD"/>
</svg>
