<svg width="41" height="37" viewBox="0 0 41 37" fill="none" xmlns="http://www.w3.org/2000/svg">
<path d="M11.0371 24.4484V19.2915C11.0371 18.7392 11.4848 18.2915 12.0371 18.2915H27.487C28.0393 18.2915 28.487 18.7392 28.487 19.2915V24.4144C28.487 24.7361 28.3305 25.0417 28.0642 25.222C21.1494 29.9029 14.3499 27.3453 11.4151 25.2155C11.1703 25.0379 11.0371 24.7509 11.0371 24.4484Z" fill="white"/>
<path d="M19.3212 6.57489L7.22137 11.7528C5.62286 12.4368 5.59835 14.6941 7.18164 15.4127L19.2813 20.9043C19.8093 21.1439 20.4152 21.1427 20.9422 20.9008L20.525 19.992L20.9422 20.9008L32.9077 15.4091C34.4808 14.6871 34.4562 12.4433 32.8677 11.7559L20.9023 6.5781C20.3981 6.3599 19.8263 6.35874 19.3212 6.57489Z" fill="white" stroke="#6B8AFD" stroke-width="2" stroke-linecap="round"/>
<path d="M30.8867 18.6018V30.325" stroke="white" stroke-width="1.5" stroke-linecap="round"/>
</svg>
