<svg width="30" height="29" viewBox="0 0 30 29" fill="none" xmlns="http://www.w3.org/2000/svg">
<g id="Group 2445">
<path id="Vector 426" d="M10.2158 1.54688H28.7666V27.5469H10.2158" stroke="white" stroke-width="1.8" stroke-linecap="round"/>
<path id="Arrow 10" d="M1.7666 13.6469C1.26955 13.6469 0.866602 14.0498 0.866602 14.5469C0.866602 15.0439 1.26955 15.4469 1.7666 15.4469V13.6469ZM16.5725 15.1833C16.924 14.8318 16.924 14.262 16.5725 13.9105L10.845 8.18291C10.4935 7.83144 9.92366 7.83144 9.57219 8.18291C9.22072 8.53439 9.22072 9.10423 9.57219 9.45571L14.6634 14.5469L9.57219 19.638C9.22072 19.9895 9.22072 20.5594 9.57219 20.9108C9.92366 21.2623 10.4935 21.2623 10.845 20.9108L16.5725 15.1833ZM1.7666 15.4469H15.9362V13.6469H1.7666V15.4469Z" fill="white"/>
</g>
</svg>
