<svg width="41" height="37" viewBox="0 0 41 37" fill="none" xmlns="http://www.w3.org/2000/svg">
<path d="M16.4321 19.1161L20.7887 13.2302C21.1162 12.7876 21.8141 13.1222 21.6741 13.6548L20.8615 16.7454C20.7781 17.0624 21.0173 17.3725 21.3451 17.3725H23.7076C24.1185 17.3725 24.354 17.8407 24.109 18.1706L19.1878 24.799C18.8659 25.2326 18.1804 24.9187 18.2984 24.3917L19.1645 20.5228C19.2345 20.2104 18.9968 19.9136 18.6766 19.9136H16.8339C16.4234 19.9136 16.1878 19.4461 16.4321 19.1161Z" fill="white"/>
<path d="M10.6289 19.0378V18.6404C10.6289 13.4495 14.8369 9.24146 20.0278 9.24146V9.24146" stroke="white" stroke-width="1.32" stroke-linecap="round"/>
<path d="M19.2788 7.32495L20.576 8.61795C20.921 8.96181 20.921 9.52048 20.5761 9.86438L19.2788 11.1578" stroke="white" stroke-width="1.32" stroke-linecap="round"/>
<path d="M19.6043 28.4087L20.0585 28.4087C25.2341 28.4087 29.4297 24.2131 29.4297 19.0375V19.0375" stroke="white" stroke-width="1.32" stroke-linecap="round"/>
<path d="M20.2407 26.4922L18.9435 27.7852C18.5986 28.129 18.5985 28.6877 18.9435 29.0316L20.2407 30.325" stroke="white" stroke-width="1.32" stroke-linecap="round"/>
</svg>
