<svg width="30" height="29" viewBox="0 0 30 29" fill="none" xmlns="http://www.w3.org/2000/svg">
<g id="Group 2445">
<path id="Vector 426" d="M10.2158 1.54688H28.7666V27.5469H10.2158" stroke="white" stroke-width="1.8" stroke-linecap="round"/>
<path id="Arrow 10" d="M15.936 13.6469C16.4331 13.6469 16.836 14.0498 16.836 14.5469C16.836 15.0439 16.4331 15.4469 15.936 15.4469V13.6469ZM1.13009 15.1833C0.778616 14.8318 0.778616 14.262 1.13009 13.9105L6.85765 8.18291C7.20912 7.83144 7.77897 7.83144 8.13045 8.18291C8.48192 8.53439 8.48192 9.10423 8.13045 9.45571L3.03928 14.5469L8.13045 19.638C8.48192 19.9895 8.48192 20.5594 8.13045 20.9108C7.77897 21.2623 7.20912 21.2623 6.85765 20.9108L1.13009 15.1833ZM15.936 15.4469H1.76648V13.6469H15.936V15.4469Z" fill="white"/>
</g>
</svg>
