<svg width="41" height="37" viewBox="0 0 41 37" fill="none" xmlns="http://www.w3.org/2000/svg">
<path d="M16.7235 11.7218L13.0013 12.8078C12.4664 12.9638 12.1623 13.5269 12.3249 14.0597L14.6451 21.6597C14.7106 21.8744 14.702 22.1049 14.6207 22.3141L13.4647 25.2866C13.2098 25.9422 13.6934 26.6491 14.3967 26.6491H25.2593C25.9627 26.6491 26.4462 25.9422 26.1913 25.2866L25.0437 22.3356C24.9573 22.1133 24.9532 21.8675 25.032 21.6424L27.6823 14.0814C27.8712 13.5425 27.5711 12.955 27.0238 12.7922L23.3801 11.708C23.1346 11.6349 22.9266 11.4705 22.7988 11.2487L22.2801 10.3482C22.1016 10.0384 21.7712 9.84741 21.4136 9.84741H18.6064C18.2163 9.84741 17.8617 10.0743 17.6983 10.4286L17.3515 11.1806C17.2303 11.4434 17.0012 11.6407 16.7235 11.7218Z" fill="white"/>
<path d="M19.9785 6.82495V8.15569" stroke="white" stroke-width="1.5" stroke-linecap="round"/>
<path d="M19.9785 28.3787L19.9785 30.825" stroke="white" stroke-width="1.5" stroke-linecap="round"/>
</svg>
