<svg width="41" height="37" viewBox="0 0 41 37" fill="none" xmlns="http://www.w3.org/2000/svg">
<path d="M10.6289 19.0378V18.6404C10.6289 13.4495 14.8369 9.24146 20.0278 9.24146V9.24146" stroke="white" stroke-width="1.32" stroke-linecap="round"/>
<path d="M19.2788 7.32495L20.576 8.61795C20.921 8.96181 20.921 9.52048 20.5761 9.86438L19.2788 11.1578" stroke="white" stroke-width="1.32" stroke-linecap="round"/>
<path d="M19.6043 28.4087L20.0585 28.4087C25.2341 28.4087 29.4297 24.2131 29.4297 19.0375V19.0375" stroke="white" stroke-width="1.32" stroke-linecap="round"/>
<path d="M20.2407 26.4922L18.9435 27.7852C18.5986 28.129 18.5985 28.6877 18.9435 29.0316L20.2407 30.325" stroke="white" stroke-width="1.32" stroke-linecap="round"/>
<path d="M22.1598 16.9233V16.6934C22.1598 15.549 21.2141 14.6213 20.0697 14.6213V14.6213C18.945 14.6213 18.0156 15.5331 18.0156 16.6577V16.6577C18.0156 17.7824 18.9273 18.6941 20.052 18.6941H20.1235C21.2481 18.6941 22.1598 19.6058 22.1598 20.7304V20.7304C22.1598 21.855 21.2304 22.7667 20.1057 22.7667V22.7667C18.9614 22.7667 18.0156 21.839 18.0156 20.6947V20.3468" stroke="white" stroke-width="1.815" stroke-linecap="round"/>
<path d="M20.0273 13.2639V14.5625" stroke="white" stroke-width="1.815" stroke-linecap="round"/>
<path d="M20.0273 22.7668V24.0654" stroke="white" stroke-width="1.815" stroke-linecap="round"/>
</svg>
