<svg width="41" height="37" viewBox="0 0 41 37" fill="none" xmlns="http://www.w3.org/2000/svg">
<path d="M21.1781 15.9553L10.2395 25.4707C9.58288 26.0419 9.54696 27.0524 10.1613 27.6691L11.2541 28.7661C11.8705 29.3848 12.881 29.3462 13.4487 28.6823L22.8789 17.6546C23.2886 17.1755 23.2616 16.4604 22.8168 16.014C22.3705 15.5659 21.6551 15.5403 21.1781 15.9553Z" fill="white" stroke="#6B8AFD"/>
<ellipse cx="3.46981" cy="4.31773" rx="3.46981" ry="4.31773" transform="matrix(0.705758 0.708453 -0.705758 0.708453 26.6309 7.32495)" fill="white"/>
<path d="M16.0193 18.194L25.4986 29.1744C26.0676 29.8335 27.0742 29.8696 27.6886 29.2528L28.7814 28.1559C29.3977 27.5372 29.3593 26.5228 28.6979 25.9529L17.7122 16.4867C17.2349 16.0754 16.5226 16.1026 16.0778 16.5491C15.6315 16.9971 15.606 17.7152 16.0193 18.194Z" fill="white" stroke="#6B8AFD"/>
<path d="M8.53125 12.6362L11.9378 16.0558C12.9596 17.0815 14.6163 17.0815 15.6382 16.0558V16.0558C16.66 15.03 16.66 13.367 15.6382 12.3413L12.2316 8.92172" stroke="white" stroke-width="1.3" stroke-linecap="round"/>
<path d="M12.4391 12.9523L10.3281 10.8333" stroke="white" stroke-width="1.3" stroke-linecap="round"/>
</svg>
