<svg width="41" height="37" viewBox="0 0 41 37" fill="none" xmlns="http://www.w3.org/2000/svg">
<path d="M25.6649 18.3767H14.3937C10.7407 18.3767 7.7793 21.3381 7.7793 24.9911C7.7793 28.4893 10.6152 31.3251 14.1133 31.3251H25.8902C29.3884 31.3251 32.2793 28.4893 32.2793 24.9911C32.2793 21.3381 29.3179 18.3767 25.6649 18.3767Z" fill="white"/>
<path d="M14.6101 21.9639H14.0544C13.7782 21.9639 13.5544 22.1877 13.5544 22.4639V23.3697C13.5544 23.6459 13.3305 23.8697 13.0544 23.8697H11.7773C11.5012 23.8697 11.2773 24.0936 11.2773 24.3697V25.1634C11.2773 25.4396 11.5012 25.6634 11.7773 25.6634H13.0544C13.3305 25.6634 13.5544 25.8873 13.5544 26.1634V27.2374C13.5544 27.5136 13.7782 27.7374 14.0544 27.7374H14.6101C14.8862 27.7374 15.1101 27.5136 15.1101 27.2374V26.1634C15.1101 25.8873 15.3339 25.6634 15.6101 25.6634H16.8886C17.1648 25.6634 17.3886 25.4396 17.3886 25.1634V24.3697C17.3886 24.0936 17.1648 23.8697 16.8886 23.8697H15.6101C15.3339 23.8697 15.1101 23.6459 15.1101 23.3697V22.4639C15.1101 22.1877 14.8862 21.9639 14.6101 21.9639Z" fill="#6B8AFD"/>
<ellipse cx="25.3432" cy="22.6722" rx="1.25138" ry="1.26257" fill="#6B8AFD"/>
<ellipse cx="27.5045" cy="24.8507" rx="1.26257" ry="1.25138" transform="rotate(90 27.5045 24.8507)" fill="#6B8AFD"/>
<ellipse cx="25.3432" cy="27.0292" rx="1.25138" ry="1.26257" fill="#6B8AFD"/>
<ellipse cx="23.1861" cy="24.8507" rx="1.26257" ry="1.25138" transform="rotate(90 23.1861 24.8507)" fill="#6B8AFD"/>
<rect x="18.4336" y="16.5269" width="3.50037" height="2.3425" rx="1" fill="white"/>
<path d="M20.1676 16.6389V15.0045C20.1676 14.4522 19.7199 14.0045 19.1676 14.0045H16.5566C16.0044 14.0045 15.5566 13.5567 15.5566 13.0045V12.4259C15.5566 11.8736 16.0044 11.4259 16.5566 11.4259H23.9462C24.4985 11.4259 24.9462 10.9782 24.9462 10.4259V9.9596C24.9462 9.40732 24.4985 8.9596 23.9462 8.9596H21.1676C20.6153 8.9596 20.1676 8.51189 20.1676 7.9596V6.32495" stroke="white" stroke-width="1.5" stroke-linecap="round"/>
</svg>
