<svg width="34" height="34" viewBox="0 0 34 34" fill="none" xmlns="http://www.w3.org/2000/svg">
<g id="&#234;&#185;&#131;&#237;&#151;&#136;&#235;&#184;&#140;">
<rect id="Rectangle 2603" x="0.0351562" y="0.446289" width="33" height="33" rx="7" fill="white"/>
<circle id="Ellipse 256" cx="16.5352" cy="16.9463" r="9.5" fill="black"/>
<path id="Union" fill-rule="evenodd" clip-rule="evenodd" d="M11.3354 12.1343V14.5941C10.7235 15.3209 10.3691 16.1836 10.3691 17.1088C10.3691 19.2626 12.2897 21.0774 14.9075 21.6288C14.5261 21.928 14.2561 22.3627 14.1701 22.8604H13.3766C12.7048 22.8604 12.0763 22.5222 11.6261 22.0236C10.8152 21.1256 9.67871 20.1277 9.67871 20.8364C9.67871 20.9832 9.75362 21.0503 9.88885 21.1716C10.0389 21.3062 10.2633 21.5075 10.5421 21.9582C11.3536 23.2699 12.6261 24.3139 14.1408 24.2961V26.447H18.8787V23.2034C18.8787 22.577 18.5908 22.0179 18.1401 21.6512C20.8139 21.128 22.7886 19.2926 22.7886 17.1088C22.7886 16.2557 22.4872 15.4558 21.9606 14.7665V12.1343C21.9606 11.783 21.6079 11.5412 21.2803 11.6679L18.6516 12.6846C18.0034 12.5112 17.3057 12.4168 16.5788 12.4168C15.8827 12.4168 15.2134 12.5034 14.5886 12.663L12.0157 11.6679C11.6881 11.5412 11.3354 11.783 11.3354 12.1343Z" fill="white"/>
</g>
</svg>
