<svg width="41" height="37" viewBox="0 0 41 37" fill="none" xmlns="http://www.w3.org/2000/svg">
<path d="M28.7895 18.1562C31.4102 20.7769 31.4102 25.0258 28.7895 27.6464C26.1688 30.2671 21.9199 30.2671 19.2993 27.6464L11.2691 19.6162C8.64843 16.9956 8.64843 12.7467 11.2691 10.126C13.8897 7.50537 18.1387 7.50537 20.7593 10.126L28.7895 18.1562Z" fill="#6B8AFD"/>
<path fill-rule="evenodd" clip-rule="evenodd" d="M29.337 17.6087C32.2601 20.5317 32.2601 25.2709 29.337 28.194C26.414 31.117 21.6748 31.117 18.7518 28.194L10.7216 20.1638C7.79854 17.2407 7.79854 12.5015 10.7216 9.57851C13.6446 6.65547 18.3838 6.65547 21.3068 9.57851L29.337 17.6087ZM28.242 27.0989C30.5603 24.7807 30.5603 21.022 28.242 18.7037L20.2118 10.6735C17.8935 8.35526 14.1349 8.35526 11.8166 10.6735C9.49833 12.9918 9.49833 16.7505 11.8166 19.0687L19.8468 27.0989C22.1651 29.4172 25.9237 29.4172 28.242 27.0989Z" fill="white"/>
<path d="M24.7744 14.1411L15.2842 23.6313L11.2691 19.6162C8.64843 16.9956 8.64843 12.7467 11.2691 10.126C13.8897 7.50537 18.1387 7.50537 20.7593 10.126L24.7744 14.1411Z" fill="white"/>
<path fill-rule="evenodd" clip-rule="evenodd" d="M25.8694 14.1411L15.2842 24.7264L10.7216 20.1638C7.79854 17.2407 7.79854 12.5015 10.7216 9.57851C13.6446 6.65547 18.3838 6.65547 21.3068 9.57851L25.8694 14.1411ZM23.6794 14.1411L20.2118 10.6735C17.8935 8.35526 14.1349 8.35526 11.8166 10.6735C9.49833 12.9918 9.49833 16.7505 11.8166 19.0687L15.2842 22.5363L23.6794 14.1411Z" fill="white"/>
</svg>
