<svg width="28" height="16" viewBox="0 0 28 16" fill="none" xmlns="http://www.w3.org/2000/svg">
<g id="Group 2585">
<rect id="Rectangle 2641" x="4.2832" y="1.48047" width="19.8708" height="10.244" rx="0.5" fill="white" stroke="white"/>
<rect id="Rectangle 2642" x="3.7832" y="8.18848" width="10.3715" height="4.03583" rx="1" fill="white" stroke="#6B8AFD"/>
<rect id="Rectangle 2643" x="14.2832" y="8.18848" width="10.3715" height="4.03583" rx="1" fill="white" stroke="#6B8AFD"/>
<path id="Vector 437" d="M3.44317 6.10254H2.625C1.79657 6.10254 1.125 6.77411 1.125 7.60254V13.6362C1.125 14.4646 1.79657 15.1362 2.625 15.1362H25.625C26.4534 15.1362 27.125 14.4646 27.125 13.6362V7.60254C27.125 6.77411 26.4534 6.10254 25.625 6.10254H24.8977C24.0693 6.10254 23.3977 6.77411 23.3977 7.60254V10.0785C23.3977 10.3546 23.1739 10.5785 22.8977 10.5785H5.44317C5.16703 10.5785 4.94317 10.3546 4.94317 10.0785V7.60254C4.94317 6.77411 4.2716 6.10254 3.44317 6.10254Z" fill="white" stroke="#6B8AFD" stroke-linecap="round"/>
<rect id="Rectangle 2644" x="4.04944" y="14.902" width="0.532475" height="0.81195" rx="0.266238" fill="white" stroke="white" stroke-width="0.532475"/>
<rect id="Rectangle 2645" x="23.8551" y="14.902" width="0.532475" height="0.81195" rx="0.266238" fill="white" stroke="white" stroke-width="0.532475"/>
</g>
</svg>
