<svg width="25" height="20" viewBox="0 0 25 20" fill="none" xmlns="http://www.w3.org/2000/svg">
<g id="Group 2584">
<rect id="Rectangle 2638" x="1.60156" y="8.69238" width="21.0465" height="10.3418" rx="1.25" fill="white" stroke="#6B8AFD" stroke-width="1.5"/>
<path id="Rectangle 2639" d="M0.875 4.66113C0.875 3.97078 1.43464 3.41113 2.125 3.41113H22.125C22.8154 3.41113 23.375 3.97078 23.375 4.66113V8.96877C23.375 9.56964 22.9475 10.0855 22.3571 10.197L12.3571 12.0864C12.2037 12.1154 12.0463 12.1154 11.8929 12.0864L1.89293 10.197C1.30251 10.0855 0.875 9.56964 0.875 8.96877V4.66113Z" fill="white" stroke="#6B8AFD" stroke-width="1.5"/>
<path id="Vector 436" d="M6.85645 4.10003V2.22266C6.85645 1.67037 7.30416 1.22266 7.85645 1.22266H16.3941C16.9464 1.22266 17.3941 1.67037 17.3941 2.22266V4.10003" stroke="white" stroke-width="1.5" stroke-linecap="round"/>
<rect id="Rectangle 2640" x="9.49219" y="9.96094" width="5.2666" height="3.90257" rx="1" fill="#6B8AFD"/>
</g>
</svg>
