<svg width="41" height="37" viewBox="0 0 41 37" fill="none" xmlns="http://www.w3.org/2000/svg">
<path d="M19.5993 7.59135L8.1851 13.9002C7.87808 14.0698 7.6875 14.3929 7.6875 14.7437C7.6875 15.2761 8.11903 15.7076 8.65136 15.7076H31.6035C32.1352 15.7076 32.5661 15.2766 32.5661 14.745C32.5661 14.3936 32.3747 14.0701 32.0666 13.9011L20.5641 7.58985C20.2635 7.42493 19.8994 7.42549 19.5993 7.59135Z" fill="white"/>
<rect x="9.58398" y="16.6064" width="3.07575" height="1.51896" rx="0.759481" fill="white"/>
<rect x="14.1113" y="16.6064" width="3.07575" height="1.51896" rx="0.759481" fill="white"/>
<rect x="18.6406" y="16.6064" width="3.07575" height="1.51896" rx="0.759481" fill="white"/>
<rect x="23.166" y="16.6064" width="3.07575" height="1.51896" rx="0.759481" fill="white"/>
<rect x="27.6914" y="16.6064" width="3.07575" height="1.51896" rx="0.759481" fill="white"/>
<rect x="10.1445" y="18.843" width="1.95856" height="7.28159" rx="0.979278" fill="white"/>
<rect x="14.6699" y="18.843" width="1.95856" height="7.28159" rx="0.979278" fill="white"/>
<rect x="19.1973" y="18.843" width="1.95856" height="7.28159" rx="0.979278" fill="white"/>
<rect x="23.7227" y="18.843" width="1.95856" height="7.28159" rx="0.979278" fill="white"/>
<rect x="28.25" y="18.843" width="1.95856" height="7.28159" rx="0.979278" fill="white"/>
<rect x="8.40625" y="26.5037" width="23.2477" height="1.91031" rx="0.955155" fill="white"/>
<rect x="6.73047" y="27.9146" width="26.6" height="2.91031" rx="1.45516" fill="white" stroke="#6B8AFD"/>
</svg>
