<svg width="34" height="34" viewBox="0 0 34 34" fill="none" xmlns="http://www.w3.org/2000/svg">
<g id="g986">
<path id="path2517" d="M16.5387 0.951139C9.65097 0.951139 7.63802 0.95599 7.24513 0.989951C5.83364 1.10639 4.95085 1.32956 3.99531 1.80986C3.25803 2.17857 2.67598 2.60065 2.09877 3.19739C1.05106 4.28413 0.41565 5.62315 0.187677 7.20959C0.0761162 7.98098 0.0421625 8.14109 0.037312 12.0805C0.0324615 13.3953 0.037312 15.1224 0.037312 17.4414C0.037312 24.3257 0.0470131 26.3391 0.076116 26.7321C0.192528 28.1099 0.405949 28.9735 0.861894 29.9195C1.73498 31.734 3.40355 33.0924 5.36799 33.6018C6.04706 33.7765 6.79889 33.8735 7.76413 33.9172C8.17157 33.9366 12.3381 33.9463 16.5047 33.9463C20.6713 33.9463 24.8378 33.9414 25.2356 33.922C26.3512 33.8687 27.0012 33.7813 27.719 33.597C29.698 33.0876 31.3326 31.7486 32.2251 29.9098C32.6714 28.988 32.8993 28.0857 33.0012 26.7806C33.0255 26.4944 33.0352 21.9631 33.0352 17.4366C33.0352 12.9101 33.0255 8.38366 33.0012 8.09742C32.8993 6.77296 32.6714 5.88028 32.2057 4.93908C31.8274 4.16769 31.4054 3.59036 30.7942 3.00333C29.7029 1.96025 28.369 1.32471 26.778 1.09668C26.0068 0.9851 25.8516 0.951141 21.9081 0.946289H16.5387V0.951139Z" fill="url(#paint0_radial_1922_915)"/>
<path id="path24" d="M16.5387 0.951139C9.65097 0.951139 7.63802 0.95599 7.24513 0.989951C5.83364 1.10639 4.95085 1.32956 3.99531 1.80986C3.25803 2.17857 2.67598 2.60065 2.09877 3.19739C1.05106 4.28413 0.41565 5.62315 0.187677 7.20959C0.0761162 7.98098 0.0421625 8.14109 0.037312 12.0805C0.0324615 13.3953 0.037312 15.1224 0.037312 17.4414C0.037312 24.3257 0.0470131 26.3391 0.076116 26.7321C0.192528 28.1099 0.405949 28.9735 0.861894 29.9195C1.73498 31.734 3.40355 33.0924 5.36799 33.6018C6.04706 33.7765 6.79889 33.8735 7.76413 33.9172C8.17157 33.9366 12.3381 33.9463 16.5047 33.9463C20.6713 33.9463 24.8378 33.9414 25.2356 33.922C26.3512 33.8687 27.0012 33.7813 27.719 33.597C29.698 33.0876 31.3326 31.7486 32.2251 29.9098C32.6714 28.988 32.8993 28.0857 33.0012 26.7806C33.0255 26.4944 33.0352 21.9631 33.0352 17.4366C33.0352 12.9101 33.0255 8.38366 33.0012 8.09742C32.8993 6.77296 32.6714 5.88028 32.2057 4.93908C31.8274 4.16769 31.4054 3.59036 30.7942 3.00333C29.7029 1.96025 28.369 1.32471 26.778 1.09668C26.0068 0.9851 25.8516 0.951141 21.9081 0.946289H16.5387V0.951139Z" fill="url(#paint1_radial_1922_915)"/>
<path id="path2471" d="M16.5387 0.951139C9.65097 0.951139 7.63802 0.95599 7.24513 0.989951C5.83364 1.10639 4.95085 1.32956 3.99531 1.80986C3.25803 2.17857 2.67598 2.60065 2.09877 3.19739C1.05106 4.28413 0.41565 5.62315 0.187677 7.20959C0.0761162 7.98098 0.0421625 8.14109 0.037312 12.0805C0.0324615 13.3953 0.037312 15.1224 0.037312 17.4414C0.037312 24.3257 0.0470131 26.3391 0.076116 26.7321C0.192528 28.1099 0.405949 28.9735 0.861894 29.9195C1.73498 31.734 3.40355 33.0924 5.36799 33.6018C6.04706 33.7765 6.79889 33.8735 7.76413 33.9172C8.17157 33.9366 12.3381 33.9463 16.5047 33.9463C20.6713 33.9463 24.8378 33.9414 25.2356 33.922C26.3512 33.8687 27.0012 33.7813 27.719 33.597C29.698 33.0876 31.3326 31.7486 32.2251 29.9098C32.6714 28.988 32.8993 28.0857 33.0012 26.7806C33.0255 26.4944 33.0352 21.9631 33.0352 17.4366C33.0352 12.9101 33.0255 8.38366 33.0012 8.09742C32.8993 6.77296 32.6714 5.88028 32.2057 4.93908C31.8274 4.16769 31.4054 3.59036 30.7942 3.00333C29.7029 1.96025 28.369 1.32471 26.778 1.09668C26.0068 0.9851 25.8516 0.951141 21.9081 0.946289H16.5387V0.951139Z" fill="url(#paint2_radial_1922_915)"/>
<path id="path2501" d="M16.5387 0.951139C9.65097 0.951139 7.63802 0.95599 7.24513 0.989951C5.83364 1.10639 4.95085 1.32956 3.99531 1.80986C3.25803 2.17857 2.67598 2.60065 2.09877 3.19739C1.05106 4.28413 0.41565 5.62315 0.187677 7.20959C0.0761162 7.98098 0.0421625 8.14109 0.037312 12.0805C0.0324615 13.3953 0.037312 15.1224 0.037312 17.4414C0.037312 24.3257 0.0470131 26.3391 0.076116 26.7321C0.192528 28.1099 0.405949 28.9735 0.861894 29.9195C1.73498 31.734 3.40355 33.0924 5.36799 33.6018C6.04706 33.7765 6.79889 33.8735 7.76413 33.9172C8.17157 33.9366 12.3381 33.9463 16.5047 33.9463C20.6713 33.9463 24.8378 33.9414 25.2356 33.922C26.3512 33.8687 27.0012 33.7813 27.719 33.597C29.698 33.0876 31.3326 31.7486 32.2251 29.9098C32.6714 28.988 32.8993 28.0857 33.0012 26.7806C33.0255 26.4944 33.0352 21.9631 33.0352 17.4366C33.0352 12.9101 33.0255 8.38366 33.0012 8.09742C32.8993 6.77296 32.6714 5.88028 32.2057 4.93908C31.8274 4.16769 31.4054 3.59036 30.7942 3.00333C29.7029 1.96025 28.369 1.32471 26.778 1.09668C26.0068 0.9851 25.8516 0.951141 21.9081 0.946289H16.5387V0.951139Z" fill="url(#paint3_radial_1922_915)"/>
<path id="path28" d="M16.5388 5.19141C13.2066 5.19141 12.7894 5.20596 11.4798 5.26418C10.175 5.3224 9.28252 5.53101 8.50159 5.8318C7.69641 6.14715 7.0125 6.56438 6.32858 7.2436C5.64466 7.92281 5.22752 8.60687 4.91224 9.41707C4.60666 10.1982 4.40294 11.086 4.34473 12.3911C4.28652 13.701 4.27197 14.1182 4.27197 17.4463C4.27197 20.7745 4.28652 21.1917 4.34473 22.5016C4.40294 23.8067 4.61151 24.6993 4.91224 25.4756C5.22752 26.2809 5.64466 26.965 6.32858 27.6491C7.0125 28.3331 7.69641 28.7504 8.50159 29.0657C9.28252 29.3665 10.175 29.5751 11.4798 29.6333C12.7894 29.6915 13.2066 29.7061 16.5388 29.7061C19.8711 29.7061 20.2883 29.6915 21.5979 29.6333C22.9027 29.5751 23.7952 29.3665 24.5761 29.0657C25.3813 28.7504 26.0652 28.3331 26.7491 27.6491C27.433 26.9699 27.8502 26.2858 28.1655 25.4756C28.4662 24.6945 28.6748 23.8067 28.733 22.5016C28.7912 21.1917 28.8057 20.7745 28.8057 17.4463C28.8057 14.1182 28.7912 13.6961 28.733 12.3911C28.6699 11.086 28.4662 10.1933 28.1655 9.41707C27.8502 8.61172 27.433 7.92766 26.7491 7.2436C26.0652 6.55953 25.3861 6.1423 24.5761 5.8318C23.7952 5.53101 22.9027 5.3224 21.5979 5.26418C20.2834 5.20596 19.8711 5.19141 16.5388 5.19141ZM15.4378 7.39885C15.7628 7.39885 16.1266 7.39885 16.5388 7.39885C19.8129 7.39885 20.201 7.40855 21.496 7.47162C22.6941 7.52498 23.3392 7.72389 23.7758 7.8937C24.3481 8.11687 24.7556 8.3837 25.1873 8.81063C25.619 9.23757 25.8809 9.64995 26.104 10.2224C26.2738 10.6542 26.4726 11.3043 26.526 12.4978C26.5842 13.7883 26.5987 14.1764 26.5987 17.4512C26.5987 20.726 26.5842 21.1092 26.526 22.4046C26.4726 23.598 26.2738 24.2482 26.104 24.6799C25.8809 25.2524 25.6141 25.6599 25.1873 26.0869C24.7556 26.5138 24.3481 26.7806 23.7758 27.0038C23.3441 27.1736 22.6941 27.3725 21.496 27.4259C20.201 27.4841 19.8129 27.4987 16.5388 27.4987C13.2648 27.4987 12.8767 27.4841 11.5817 27.4259C10.3836 27.3725 9.73847 27.1688 9.30192 27.0038C8.72957 26.7806 8.32213 26.5138 7.89043 26.0869C7.45874 25.6599 7.19681 25.2524 6.97369 24.6799C6.80392 24.2482 6.60506 23.598 6.5517 22.4046C6.49349 21.1141 6.47894 20.726 6.47894 17.4512C6.47894 14.1764 6.48864 13.7931 6.5517 12.4978C6.60506 11.3043 6.80392 10.6542 6.97369 10.2224C7.19681 9.64995 7.46359 9.24242 7.89043 8.81063C8.32213 8.3837 8.72957 8.11687 9.30192 7.8937C9.73362 7.72389 10.3836 7.52498 11.5817 7.47162C12.7167 7.4134 13.1532 7.39885 15.4378 7.39885ZM23.087 9.43648C22.2721 9.43648 21.6173 10.0963 21.6173 10.9065C21.6173 11.7167 22.277 12.3765 23.087 12.3765C23.9019 12.3765 24.5567 11.7167 24.5567 10.9065C24.5567 10.0963 23.9019 9.43648 23.087 9.43648ZM16.5388 11.1539C13.061 11.1539 10.2381 13.9726 10.2381 17.4512C10.2381 20.9297 13.061 23.7484 16.5388 23.7484C20.0166 23.7484 22.8396 20.9297 22.8396 17.4512C22.8396 13.9726 20.0166 11.1539 16.5388 11.1539ZM16.5388 13.3662C18.7992 13.3662 20.6278 15.1952 20.6278 17.4512C20.6278 19.7071 18.7992 21.5362 16.5388 21.5362C14.2785 21.5362 12.4499 19.7071 12.4499 17.4512C12.4499 15.1952 14.2834 13.3662 16.5388 13.3662Z" fill="white"/>
</g>
<defs>
<radialGradient id="paint0_radial_1922_915" cx="0" cy="0" r="1" gradientUnits="userSpaceOnUse" gradientTransform="translate(31.9664 16.419) rotate(164.247) scale(21.0819 15.1913)">
<stop stop-color="#FF005F"/>
<stop offset="1" stop-color="#FC01D8"/>
</radialGradient>
<radialGradient id="paint1_radial_1922_915" cx="0" cy="0" r="1" gradientUnits="userSpaceOnUse" gradientTransform="translate(8.80041 36.4937) rotate(-90) scale(26.3424 27.9428)">
<stop stop-color="#FFCC00"/>
<stop offset="0.1242" stop-color="#FFCC00"/>
<stop offset="0.5672" stop-color="#FE4A05"/>
<stop offset="0.6942" stop-color="#FF0F3F"/>
<stop offset="1" stop-color="#FE0657" stop-opacity="0"/>
</radialGradient>
<radialGradient id="paint2_radial_1922_915" cx="0" cy="0" r="1" gradientUnits="userSpaceOnUse" gradientTransform="translate(17.3679 33.489) rotate(-59.8754) scale(10.8921 14.1789)">
<stop stop-color="#FFCC00"/>
<stop offset="1" stop-color="#FFCC00" stop-opacity="0"/>
</radialGradient>
<radialGradient id="paint3_radial_1922_915" cx="0" cy="0" r="1" gradientUnits="userSpaceOnUse" gradientTransform="translate(4.51026 2.29798) rotate(164.27) scale(20.8483 7.10417)">
<stop stop-color="#780CFF"/>
<stop offset="1" stop-color="#820BFF" stop-opacity="0"/>
</radialGradient>
</defs>
</svg>
