<svg width="21" height="20" viewBox="0 0 21 20" fill="none" xmlns="http://www.w3.org/2000/svg">
<path d="M7.51562 0.854004H20.1573V18.5241H7.51562" stroke="white" stroke-width="1.6" stroke-linecap="round"/>
<path d="M1.75781 8.88896C1.31598 8.88896 0.957812 9.24714 0.957812 9.68896C0.957812 10.1308 1.31598 10.489 1.75781 10.489V8.88896ZM11.9795 10.2547C12.2919 9.94223 12.2919 9.4357 11.9795 9.12328L6.88834 4.03211C6.57592 3.71969 6.06939 3.71969 5.75697 4.03211C5.44455 4.34453 5.44455 4.85106 5.75697 5.16348L10.2824 9.68896L5.75697 14.2144C5.44455 14.5269 5.44455 15.0334 5.75697 15.3458C6.06939 15.6582 6.57592 15.6582 6.88834 15.3458L11.9795 10.2547ZM1.75781 10.489H11.4138V8.88896H1.75781V10.489Z" fill="white"/>
</svg>
