<svg width="41" height="37" viewBox="0 0 41 37" fill="none" xmlns="http://www.w3.org/2000/svg">
<path fill-rule="evenodd" clip-rule="evenodd" d="M10.5621 11.8978C10.4867 11.7951 10.3423 11.769 10.2346 11.8385L6.14829 14.4757C5.81511 14.6908 5.36734 14.6001 5.14819 14.2732C4.92903 13.9463 5.02146 13.5069 5.35465 13.2919L9.44092 10.6547C10.195 10.168 11.2061 10.3508 11.7338 11.0693L22.9607 26.3557C23.037 26.4595 23.1838 26.4848 23.2916 26.4127L33.9004 19.3162C34.2299 19.0958 34.6791 19.1792 34.9038 19.5025C35.1284 19.8258 35.0434 20.2666 34.7139 20.487L24.1051 27.5835C23.3504 28.0884 22.3231 27.9112 21.789 27.1841L10.5621 11.8978Z" fill="white"/>
<path d="M26.0273 27.1699C26.4491 28.7143 25.5015 30.3053 23.9108 30.7235C22.3202 31.1417 20.6888 30.2287 20.267 28.6843C19.8453 27.1399 20.7928 25.5489 22.3835 25.1307C23.9742 24.7126 25.6056 25.6255 26.0273 27.1699Z" fill="white"/>
<path d="M24.3616 27.6074C24.5393 28.2585 24.1397 28.9292 23.469 29.1055C22.7982 29.2819 22.1103 28.8971 21.9325 28.246C21.7547 27.595 22.1544 26.9243 22.8251 26.748C23.4959 26.5716 24.1838 26.9564 24.3616 27.6074Z" fill="#6B8AFD"/>
<path d="M16.1659 13.3926C15.8697 12.9593 15.989 12.3747 16.4324 12.0868L22.8435 7.92444C23.287 7.63654 23.8866 7.75437 24.1829 8.18761L26.8916 12.149C27.1879 12.5822 27.0685 13.1668 26.6251 13.4547L20.214 17.6171C19.7705 17.905 19.1709 17.7872 18.8747 17.354L16.1659 13.3926Z" fill="white"/>
<path fill-rule="evenodd" clip-rule="evenodd" d="M15.896 11.3024L22.3071 7.13998C23.194 6.56417 24.3933 6.79982 24.9858 7.66632L27.6945 11.6277C28.287 12.4942 28.0484 13.6634 27.1615 14.2392L20.7504 18.4016C19.8635 18.9774 18.6642 18.7418 18.0717 17.8753L15.363 13.9139C14.7705 13.0474 15.0091 11.8782 15.896 11.3024ZM16.4324 12.0868C15.989 12.3747 15.8697 12.9593 16.1659 13.3926L18.8747 17.354C19.1709 17.7872 19.7705 17.905 20.214 17.6171L26.6251 13.4547C27.0685 13.1668 27.1879 12.5822 26.8916 12.149L24.1829 8.18761C23.8866 7.75437 23.287 7.63654 22.8435 7.92444L16.4324 12.0868Z" fill="#6B8AFD"/>
<path d="M20.6609 19.7223C20.3646 19.2891 20.484 18.7045 20.9274 18.4166L27.3385 14.2542C27.7819 13.9663 28.3816 14.0841 28.6778 14.5173L31.3866 18.4787C31.6828 18.912 31.5635 19.4966 31.1201 19.7845L24.7089 23.9469C24.2655 24.2348 23.6659 24.1169 23.3696 23.6837L20.6609 19.7223Z" fill="white"/>
<path fill-rule="evenodd" clip-rule="evenodd" d="M20.391 17.6321L26.8021 13.4697C27.689 12.8939 28.8883 13.1295 29.4808 13.996L32.1895 17.9574C32.782 18.8239 32.5433 19.9931 31.6565 20.5689L25.2453 24.7313C24.3585 25.3071 23.1592 25.0715 22.5667 24.205L19.858 20.2436C19.2655 19.3771 19.5041 18.2079 20.391 17.6321ZM20.9274 18.4166C20.484 18.7045 20.3646 19.2891 20.6609 19.7223L23.3696 23.6837C23.6659 24.1169 24.2655 24.2348 24.7089 23.9469L31.1201 19.7845C31.5635 19.4966 31.6828 18.912 31.3866 18.4787L28.6778 14.5173C28.3816 14.0841 27.7819 13.9663 27.3385 14.2542L20.9274 18.4166Z" fill="#6B8AFD"/>
<path d="M19.4143 11.8165C19.1652 11.4679 19.2526 10.9889 19.6096 10.7468L20.5079 10.1375C20.865 9.8954 21.3564 9.98175 21.6055 10.3304C21.8547 10.6791 21.7673 11.158 21.4103 11.4002L20.5119 12.0094C20.1549 12.2515 19.6635 12.1652 19.4143 11.8165Z" fill="#6B8AFD"/>
<path d="M23.7958 18.3435C23.5466 17.9949 23.634 17.5159 23.991 17.2738L24.8894 16.6645C25.2464 16.4224 25.7378 16.5088 25.987 16.8574C26.2361 17.2061 26.1487 17.685 25.7917 17.9272L24.8934 18.5364C24.5363 18.7786 24.0449 18.6922 23.7958 18.3435Z" fill="#6B8AFD"/>
</svg>
