<svg width="41" height="37" viewBox="0 0 41 37" fill="none" xmlns="http://www.w3.org/2000/svg">
<ellipse cx="15.2539" cy="20.3538" rx="8.78124" ry="8.99341" fill="white"/>
<ellipse cx="15.253" cy="20.3536" rx="5.6221" ry="5.75794" fill="#6B8AFD"/>
<ellipse cx="15.2537" cy="20.3537" rx="3.55248" ry="3.63832" fill="white"/>
<rect x="13.4121" y="9.88257" width="3.68061" height="2.95539" rx="1" fill="white"/>
<rect x="25.4746" y="18.469" width="3.76954" height="2.88567" rx="1" transform="rotate(90 25.4746 18.469)" fill="white"/>
<rect width="3.72534" height="2.92074" rx="1" transform="matrix(0.698616 0.715497 -0.698616 0.715497 20.9297 11.3604)" fill="white"/>
<rect width="3.72534" height="2.92074" rx="1" transform="matrix(-0.698616 0.715497 -0.698616 -0.715497 23.7832 26.425)" fill="white"/>
<rect x="13.4121" y="27.8694" width="3.68061" height="2.95539" rx="1" fill="white"/>
<rect x="7.91406" y="18.469" width="3.76954" height="2.88567" rx="1" transform="rotate(90 7.91406 18.469)" fill="white"/>
<rect width="3.72534" height="2.92074" rx="1" transform="matrix(0.698616 0.715497 -0.698616 0.715497 8.51367 24.0791)" fill="white"/>
<rect width="3.72534" height="2.92074" rx="1" transform="matrix(-0.698616 0.715497 -0.698616 -0.715497 11.3633 13.7068)" fill="white"/>
<ellipse cx="29.4117" cy="12.5841" rx="4.82968" ry="4.94638" fill="white"/>
<ellipse cx="29.4125" cy="12.5841" rx="3.09215" ry="3.16687" fill="#6B8AFD"/>
<ellipse cx="29.4109" cy="12.5841" rx="1.95387" ry="2.00108" fill="white"/>
<rect x="28.3984" y="6.82495" width="2.02433" height="1.62546" rx="0.55" fill="white"/>
<rect x="35.0352" y="11.5474" width="2.07325" height="1.58712" rx="0.55" transform="rotate(90 35.0352 11.5474)" fill="white"/>
<rect width="2.04894" height="1.60641" rx="0.55" transform="matrix(0.698616 0.715497 -0.698616 0.715497 32.5352 7.6377)" fill="white"/>
<rect width="2.04894" height="1.60641" rx="0.55" transform="matrix(-0.698616 0.715497 -0.698616 -0.715497 34.1016 15.9233)" fill="white"/>
<rect x="28.3984" y="16.7178" width="2.02433" height="1.62546" rx="0.55" fill="white"/>
<rect x="25.377" y="11.5474" width="2.07325" height="1.58712" rx="0.55" transform="rotate(90 25.377 11.5474)" fill="white"/>
<rect width="2.04894" height="1.60641" rx="0.55" transform="matrix(0.698616 0.715497 -0.698616 0.715497 25.7051 14.6328)" fill="white"/>
<rect width="2.04894" height="1.60641" rx="0.55" transform="matrix(-0.698616 0.715497 -0.698616 -0.715497 27.2734 8.92822)" fill="white"/>
</svg>
