<svg width="27" height="18" viewBox="0 0 27 18" fill="none" xmlns="http://www.w3.org/2000/svg">
<g id="Group 2884">
<path id="Vector" d="M18.3432 15.2967L18.3388 2.42972H18.3432C18.3432 1.35729 18.7929 1.0596 19.6777 0.860651L19.7018 0.855568V0.671143H14.8504L10.3461 11.2349L5.84183 0.671143H0.614248V0.854842L0.637534 0.859925C1.52311 1.0596 1.97281 1.35657 1.97281 2.42899V14.9852C1.97281 16.0576 1.52165 16.3553 0.636078 16.5542L0.612793 16.5593V16.7438H4.15946V16.5601L4.13617 16.555C3.2506 16.3553 2.8009 16.0583 2.8009 14.9859V3.15798L8.58733 16.7445H8.91551L14.8708 2.77897V15.2967C14.7951 16.144 14.3497 16.4054 13.5479 16.5862L13.5238 16.592V16.7742H19.7025V16.592L19.6785 16.5862C18.8759 16.4054 18.4196 16.144 18.3439 15.2967H18.3432Z" fill="white"/>
<path id="Vector_2" d="M24.7756 5.26582C25.1961 5.27308 25.5483 5.41031 25.8227 5.67533C25.8991 5.74939 25.9697 5.83362 26.0352 5.92873V4.69221C25.6451 4.60581 25.2384 4.56079 24.825 4.56079H24.7959C24.1221 4.56079 23.2962 4.72416 22.7075 5.01895C22.0381 5.32826 21.4479 5.79078 20.9567 6.39779C20.1658 7.37582 19.687 8.6973 19.5705 10.1821C19.5669 10.2264 19.5633 10.2714 19.5603 10.3157C19.5574 10.3579 19.5553 10.4 19.5531 10.4428C19.5429 10.6519 19.5392 10.8603 19.5429 11.0694C19.6215 14.4326 21.4421 17.1206 24.6759 17.1206C25.1641 17.1206 25.6167 17.0582 26.0352 16.942V14.4936C25.9791 14.4922 25.9231 14.49 25.8663 14.4856C23.8456 14.3346 22.2978 12.2907 22.4383 9.81401H22.439H26.0344V9.17796H22.5001C22.6013 6.92202 23.4134 5.29341 24.7756 5.26582Z" fill="white"/>
</g>
</svg>
