<svg width="34" height="34" viewBox="0 0 34 34" fill="none" xmlns="http://www.w3.org/2000/svg">
<g id="Group 2884">
<g id="Group 2891">
<rect id="Rectangle 2748" x="0.0351562" y="0.446289" width="33" height="33" rx="7" fill="black"/>
<path id="Vector" d="M25.3432 23.2967L25.3388 10.4297H25.3432C25.3432 9.35729 25.7929 9.0596 26.6777 8.86065L26.7018 8.85557V8.67114H21.8504L17.3461 19.2349L12.8418 8.67114H7.61425V8.85484L7.63753 8.85992C8.52311 9.0596 8.97281 9.35657 8.97281 10.429V22.9852C8.97281 24.0576 8.52165 24.3553 7.63608 24.5542L7.61279 24.5593V24.7438H11.1595V24.5601L11.1362 24.555C10.2506 24.3553 9.8009 24.0583 9.8009 22.9859V11.158L15.5873 24.7445H15.9155L21.8708 10.779V23.2967C21.7951 24.144 21.3497 24.4054 20.5479 24.5862L20.5238 24.592V24.7742H26.7025V24.592L26.6785 24.5862C25.8759 24.4054 25.4196 24.144 25.3439 23.2967H25.3432Z" fill="white"/>
<path id="Vector_2" d="M31.7756 13.2658C32.1961 13.2731 32.5483 13.4103 32.8227 13.6753C32.8991 13.7494 32.9697 13.8336 33.0352 13.9287V12.6922C32.6451 12.6058 32.2384 12.5608 31.825 12.5608H31.7959C31.1221 12.5608 30.2962 12.7242 29.7075 13.019C29.0381 13.3283 28.4479 13.7908 27.9567 14.3978C27.1658 15.3758 26.687 16.6973 26.5705 18.1821C26.5669 18.2264 26.5633 18.2714 26.5603 18.3157C26.5574 18.3579 26.5553 18.4 26.5531 18.4428C26.5429 18.6519 26.5392 18.8603 26.5429 19.0694C26.6215 22.4326 28.4421 25.1206 31.6759 25.1206C32.1641 25.1206 32.6167 25.0582 33.0352 24.942V22.4936C32.9791 22.4922 32.9231 22.49 32.8663 22.4856C30.8456 22.3346 29.2978 20.2907 29.4383 17.814H29.439H33.0344V17.178H29.5001C29.6013 14.922 30.4134 13.2934 31.7756 13.2658Z" fill="white"/>
</g>
</g>
</svg>
