<svg width="220" height="227" viewBox="0 0 220 227" fill="none" xmlns="http://www.w3.org/2000/svg">
<g id="Union">
<path fill-rule="evenodd" clip-rule="evenodd" d="M87.1447 7.86366L75.2292 0.466797L63.3138 7.86366H8.87012C4.45184 7.86366 0.870117 11.4454 0.870117 15.8637V218.136C0.870117 222.554 4.45184 226.136 8.87011 226.136H211.188C215.606 226.136 219.188 222.554 219.188 218.136V15.8637C219.188 11.4454 215.606 7.86366 211.188 7.86366H87.1447Z" fill="#2B3340"/>
<path d="M75.2292 0.466797L75.4402 0.126954L75.2292 -0.00400946L75.0183 0.126954L75.2292 0.466797ZM87.1447 7.86366L86.9337 8.2035L87.0306 8.26366H87.1447V7.86366ZM63.3138 7.86366V8.26366H63.4278L63.5247 8.2035L63.3138 7.86366ZM75.0183 0.806639L86.9337 8.2035L87.3556 7.52381L75.4402 0.126954L75.0183 0.806639ZM63.5247 8.2035L75.4402 0.806639L75.0183 0.126954L63.1028 7.52381L63.5247 8.2035ZM8.87012 8.26366H63.3138V7.46366H8.87012V8.26366ZM1.27012 15.8637C1.27012 11.6663 4.67275 8.26366 8.87012 8.26366V7.46366C4.23093 7.46366 0.470117 11.2245 0.470117 15.8637H1.27012ZM1.27012 218.136V15.8637H0.470117V218.136H1.27012ZM8.87011 225.736C4.67275 225.736 1.27012 222.333 1.27012 218.136H0.470117C0.470117 222.775 4.23092 226.536 8.87011 226.536V225.736ZM211.188 225.736H8.87011V226.536H211.188V225.736ZM218.788 218.136C218.788 222.333 215.385 225.736 211.188 225.736V226.536C215.827 226.536 219.588 222.775 219.588 218.136H218.788ZM218.788 15.8637V218.136H219.588V15.8637H218.788ZM211.188 8.26366C215.385 8.26366 218.788 11.6663 218.788 15.8637H219.588C219.588 11.2245 215.827 7.46366 211.188 7.46366V8.26366ZM87.1447 8.26366H211.188V7.46366H87.1447V8.26366Z" fill="#4A6285"/>
</g>
</svg>
