<svg width="29" height="21" viewBox="0 0 29 21" fill="none" xmlns="http://www.w3.org/2000/svg">
<path fill-rule="evenodd" clip-rule="evenodd" d="M24.426 1.88513C24.426 1.33285 23.9783 0.885132 23.426 0.885132H4.82411C4.27183 0.885132 3.82411 1.33285 3.82411 1.88513V8.62509C3.82411 9.17738 3.3764 9.62509 2.82411 9.62509H1.125C0.572715 9.62509 0.125 10.0728 0.125 10.6251V16.0613C0.125 16.6136 0.572715 17.0613 1.125 17.0613H3.11643C3.11643 14.2559 5.37316 11.9816 8.15698 11.9816C10.9408 11.9816 13.1975 14.2559 13.1975 17.0613H15.0525C15.0525 14.2559 17.3092 11.9816 20.093 11.9816C22.8768 11.9816 25.1336 14.2559 25.1336 17.0613H27.125C27.6773 17.0613 28.125 16.6136 28.125 16.0614V10.6251C28.125 10.0728 27.6773 9.62509 27.125 9.62509H25.426C24.8737 9.62509 24.426 9.17738 24.426 8.62509V1.88513Z" fill="white"/>
<ellipse cx="8.14895" cy="17.0615" rx="3.20656" ry="3.2315" fill="white" stroke="white"/>
<ellipse cx="20.1192" cy="17.0613" rx="3.20656" ry="3.2315" fill="white" stroke="white"/>
<rect x="6.51855" y="3.48108" width="6.78906" height="4.02931" rx="1" fill="#6B8AFD" stroke="white"/>
<rect x="15.2524" y="3.48108" width="6.78906" height="4.02931" rx="1" fill="#6B8AFD" stroke="white"/>
</svg>
