<svg width="41" height="37" viewBox="0 0 41 37" fill="none" xmlns="http://www.w3.org/2000/svg">
<path fill-rule="evenodd" clip-rule="evenodd" d="M30.6988 9.82495C30.6988 9.27267 30.2511 8.82495 29.6988 8.82495H10.3611C9.8088 8.82495 9.36109 9.27266 9.36109 9.82495V17.3371C9.36109 17.8894 8.91337 18.3371 8.36108 18.3371H6.5293C5.97701 18.3371 5.5293 18.7848 5.5293 19.3371V25.4305C5.5293 25.9828 5.97701 26.4305 6.5293 26.4305H8.62695C8.62698 23.3772 10.9643 20.9019 13.8475 20.9019C16.7308 20.9019 19.0681 23.3772 19.0681 26.4305H20.9902C20.9903 23.3772 23.3276 20.9019 26.2108 20.9019C29.094 20.9019 31.4314 23.3772 31.4314 26.4305H33.5293C34.0816 26.4305 34.5293 25.9828 34.5293 25.4305V19.3371C34.5293 18.7848 34.0816 18.3371 33.5293 18.3371H31.6988C31.1465 18.3371 30.6988 17.8894 30.6988 17.3371V9.82495Z" fill="white"/>
<ellipse cx="13.8387" cy="25.7036" rx="3.32108" ry="3.12155" fill="white" stroke="white"/>
<ellipse cx="26.2371" cy="25.7036" rx="3.32108" ry="3.12155" fill="white" stroke="white"/>
<rect x="12.1523" y="11.6504" width="7.03153" height="4.38539" rx="1" fill="#6B8AFD" stroke="white"/>
<rect x="21.1992" y="11.6504" width="7.03153" height="4.38539" rx="1" fill="#6B8AFD" stroke="white"/>
</svg>
