<svg width="34" height="35" viewBox="0 0 34 35" fill="none" xmlns="http://www.w3.org/2000/svg">
<path d="M28.8787 9.49072L8.48975 10.8978V30.0349L28.8787 28.8154V9.49072Z" fill="white"/>
<path fill-rule="evenodd" clip-rule="evenodd" d="M6.43225 7.09621C7.43614 7.90052 7.79925 7.83702 9.67888 7.71003L27.3858 6.65173C27.7703 6.65173 27.4499 6.27074 27.3217 6.22841L24.3741 4.13298C23.8188 3.70966 23.0498 3.20168 21.6188 3.32867L4.48855 4.57746C3.86913 4.64096 3.74097 4.95845 3.99728 5.19128L6.43225 7.09621ZM7.50022 11.1812V29.638C7.50022 30.6328 7.99149 30.9926 9.12354 30.9291L28.5819 29.8073C29.714 29.7438 29.8421 29.0665 29.8421 28.2622V9.93245C29.8421 9.12815 29.5217 8.68366 28.8382 8.74716L8.50411 9.93245C7.75653 9.99595 7.50022 10.3769 7.50022 11.1812ZM26.7023 12.176C26.8305 12.7264 26.7023 13.2978 26.147 13.3613L25.2071 13.5518V27.1827C24.3955 27.606 23.6479 27.86 23.0071 27.86C22.0032 27.86 21.7469 27.5425 20.9993 26.6112L14.8692 17.0654V26.2937L16.8129 26.7171C16.8129 26.7171 16.8129 27.8389 15.2537 27.8389L10.9391 28.0928C10.8109 27.8389 10.9391 27.225 11.3663 27.098L12.4983 26.7806V14.589L10.9391 14.462C10.8109 13.9116 11.1313 13.1073 12.0071 13.0438L16.642 12.7264L23.0285 22.378V13.8482L21.4052 13.6577C21.277 12.9804 21.7896 12.4724 22.4091 12.4089L26.7023 12.176ZM3.05747 2.88419L20.8925 1.59306C23.0712 1.40257 23.6479 1.52957 25.0149 2.52437L30.6965 6.4824C31.6363 7.15971 31.9567 7.35021 31.9567 8.09101V29.8284C31.9567 31.1831 31.4654 31.9874 29.714 32.1144L9.01674 33.3632C7.69246 33.4267 7.07304 33.2362 6.38954 32.3684L2.18174 26.971C1.43416 25.9762 1.11377 25.2354 1.11377 24.3676V5.04311C1.11377 3.92132 1.62639 3.01118 3.05747 2.88419Z" fill="black"/>
<path fill-rule="evenodd" clip-rule="evenodd" d="M7.10908 6.2616C7.54299 6.60925 7.70822 6.66494 7.89062 6.69274C8.18036 6.73692 8.56296 6.71103 9.49663 6.64786C9.53216 6.64545 9.56849 6.643 9.60564 6.64049L9.61405 6.63992L24.7725 5.73397L23.7319 4.99422L23.7176 4.98334C23.4666 4.792 23.2363 4.63601 22.9464 4.52804C22.6648 4.4232 22.2776 4.34619 21.7146 4.39615L21.7061 4.3969L6.17308 5.52926L7.10908 6.2616ZM21.6187 3.32853C23.0498 3.20153 23.8187 3.70952 24.374 4.13284L27.3216 6.22826C27.3335 6.23217 27.3469 6.23895 27.3613 6.24805C27.3692 6.25305 27.3774 6.25874 27.3857 6.26504C27.527 6.37168 27.7153 6.65158 27.3857 6.65158L9.6788 7.70988C9.59914 7.71526 9.52221 7.72053 9.44783 7.72562C7.76725 7.8407 7.39352 7.86629 6.43217 7.09607L3.9972 5.19113C3.74166 4.959 3.86829 4.64271 4.48295 4.57789L4.48847 4.57732L21.6187 3.32853ZM3.05739 2.88404L20.8925 1.59292C23.0711 1.40243 23.6478 1.52942 25.0148 2.52422L30.6964 6.48226C30.7442 6.51669 30.7904 6.54987 30.835 6.58192C31.668 7.18036 31.9566 7.38772 31.9566 8.09087V29.8283C31.9566 31.1829 31.4654 31.9872 29.7139 32.1142L9.01666 33.363C7.69238 33.4265 7.07296 33.236 6.38946 32.3682L2.18166 26.9709C1.43408 25.9761 1.11369 25.2353 1.11369 24.3675V5.04297C1.11369 3.92117 1.62631 3.01104 3.05739 2.88404ZM25.6429 1.65279L31.3226 5.60949L31.3296 5.61453C31.3774 5.649 31.426 5.68371 31.4749 5.71868C31.8403 5.97996 32.2262 6.25594 32.4914 6.55779C32.8947 7.01684 33.0352 7.51799 33.0352 8.09087V29.8283C33.0352 30.6036 32.9008 31.4627 32.302 32.1394C31.6947 32.8259 30.803 33.11 29.7924 33.1833L29.7793 33.1842L9.06864 34.4337C8.36967 34.4672 7.70584 34.4455 7.09086 34.221C6.43864 33.9829 5.96098 33.5632 5.54016 33.0289L5.53687 33.0247L1.32324 27.6199L1.31752 27.6123C0.501481 26.5264 0.0351562 25.5614 0.0351562 24.3675V5.04297C0.0351562 4.33439 0.195722 3.5593 0.704804 2.92322C1.23325 2.26295 2.01817 1.90014 2.96147 1.81643L2.97025 1.81565L20.8061 0.52447C21.8875 0.430103 22.7281 0.395693 23.4964 0.568727C24.301 0.749928 24.9302 1.13477 25.6429 1.65279ZM28.8382 8.74701C29.5217 8.68351 29.842 9.128 29.842 9.93231V28.262C29.842 29.0663 29.7139 29.7436 28.5818 29.8071L9.12346 30.9289C7.99141 30.9924 7.50014 30.6326 7.50014 29.6378V11.1811C7.50014 10.3768 7.75645 9.9958 8.50403 9.93231L28.8382 8.74701ZM8.58624 11.0012C8.58182 11.0468 8.57868 11.1059 8.57868 11.1811V29.6378C8.57868 29.7332 8.58568 29.7986 8.59297 29.8407C8.59571 29.8412 8.59856 29.8418 8.60151 29.8424C8.68885 29.8596 8.83467 29.8715 9.06206 29.8588L28.5211 28.737C28.6253 28.7311 28.6918 28.7183 28.7304 28.708C28.7336 28.6948 28.737 28.6783 28.7404 28.6581C28.7557 28.5666 28.7635 28.4418 28.7635 28.262V9.93231C28.7635 9.89216 28.7623 9.85658 28.7602 9.82526L8.58624 11.0012ZM27.5486 11.0565L27.753 11.9342C27.8472 12.3387 27.8754 12.853 27.6868 13.3377C27.4772 13.8764 27.0103 14.3205 26.3258 14.4189L26.2856 14.427V27.8306L25.7082 28.1317C24.8404 28.5843 23.9072 28.9317 23.007 28.9317C22.3786 28.9317 21.8189 28.8297 21.2909 28.4644C20.8747 28.1765 20.533 27.7499 20.2141 27.3518C20.1947 27.3276 20.1754 27.3035 20.1562 27.2795L20.1207 27.2354L15.9477 20.7371V25.4312L17.8914 25.8545V26.7169L16.8128 26.7169L14.8691 26.2936V17.0652L20.9993 26.6111C21.7468 27.5424 22.0032 27.8599 23.007 27.8599C23.6478 27.8599 24.3954 27.6059 25.2071 27.1826V13.5517L26.1469 13.3612C26.2598 13.3483 26.3551 13.3144 26.4341 13.2639C26.605 13.1548 26.7 12.9682 26.7337 12.7493C26.7611 12.5715 26.748 12.3724 26.7022 12.1759L22.409 12.4087C22.1922 12.431 21.9884 12.5076 21.8207 12.627C21.675 12.7306 21.5564 12.8665 21.48 13.0268C21.3931 13.2092 21.3608 13.4232 21.4051 13.6575L23.0284 13.848V22.3779L16.642 12.7262L12.007 13.0437C11.6583 13.069 11.3976 13.2117 11.2183 13.4091C11.1202 13.517 11.0465 13.6413 10.9959 13.7716C10.9067 14.0016 10.8898 14.2504 10.939 14.4618L12.4982 14.5888V26.7804L11.3662 27.0979C11.1135 27.173 10.9654 27.4185 10.9132 27.6591C10.8771 27.8252 10.8867 27.989 10.939 28.0927L15.2536 27.8387C15.637 27.8387 15.9261 27.7709 16.1442 27.6686C16.4925 27.5052 16.6593 27.2538 16.7393 27.0504C16.8128 26.8633 16.8128 26.7169 16.8128 26.7169C17.8914 26.7169 17.8914 26.7184 17.8914 26.7184L17.8914 26.7199L17.8913 26.7229L17.8913 26.7295L17.891 26.744C17.8908 26.7543 17.8904 26.766 17.8898 26.7788C17.8887 26.8045 17.8866 26.8352 17.8831 26.8704C17.8762 26.9403 17.8633 27.0298 17.8395 27.1327C17.7924 27.3361 17.6979 27.6099 17.5054 27.887C17.0837 28.4937 16.3472 28.9018 15.2878 28.9104L10.2934 29.2044L9.97489 28.5732C9.73373 28.0952 9.80152 27.5551 9.92418 27.1998C10.0583 26.8115 10.3894 26.2695 11.0571 26.071L11.0652 26.0686L11.4197 25.9692V15.5764L10.0659 15.4662L9.88824 14.7035C9.7597 14.1515 9.85667 13.5228 10.1802 13.0048C10.5273 12.4492 11.1305 12.0325 11.9285 11.9747L11.9328 11.9744L17.1967 11.6138L21.9499 18.7971V14.8008L20.4916 14.6296L20.3451 13.8556C20.0745 12.4255 21.1993 11.4552 22.2983 11.3425L22.3242 11.3399L27.5486 11.0565Z" fill="white"/>
<path d="M22.7426 3.86206L5.65771 5.26941L7.73419 7.14547L25.8575 5.92596L22.7426 3.86206Z" fill="white"/>
</svg>
