<svg width="41" height="37" viewBox="0 0 41 37" fill="none" xmlns="http://www.w3.org/2000/svg">
<path d="M8.9707 17.3246L18.877 8.5575C19.2553 8.22262 19.8241 8.22263 20.2025 8.55752L30.108 17.3246" stroke="white" stroke-width="2" stroke-linecap="round"/>
<path d="M18.9352 11.305L12.181 17.2824C11.9665 17.4722 11.8438 17.7448 11.8438 18.0312V24.8158C11.8438 25.368 12.2915 25.8158 12.8437 25.8158H26.3514C26.9037 25.8158 27.3514 25.368 27.3514 24.8158V18.0312C27.3514 17.7448 27.2286 17.4722 27.0142 17.2824L20.2607 11.3051C19.8823 10.9702 19.3136 10.9702 18.9352 11.305Z" fill="white"/>
<path d="M10.7168 10.742V8.71684V8.32495C10.7168 7.77267 11.1645 7.32495 11.7168 7.32495H13.3739C13.9261 7.32495 14.3739 7.77267 14.3739 8.32495V9.27536C14.3739 9.56174 14.2511 9.83438 14.0366 10.0242L12.3796 11.4908C11.7342 12.062 10.7168 11.6038 10.7168 10.742Z" fill="white"/>
<rect x="5.0293" y="18.3306" width="3.94113" height="11.6002" rx="1" fill="white"/>
<rect x="17.2441" y="16.7539" width="5.05745" height="6.75745" rx="1" fill="#6B8AFD"/>
<path d="M12.2348 19.5762H11.1523C10.3239 19.5762 9.65234 20.2477 9.65234 21.0762V27.3225C9.65234 27.9482 10.0407 28.5082 10.6267 28.7274L15.9209 30.7081C16.1451 30.7919 16.3862 30.8209 16.6239 30.7927L26.9712 29.5609C27.2567 29.5269 27.5263 29.4113 27.7479 29.228L34.3769 23.7424C35.1258 23.1227 35.2355 22.0152 34.6227 21.2606C34.083 20.596 33.1451 20.4124 32.3946 20.8245L26.6585 23.974C26.5978 24.0073 26.5297 24.0248 26.4605 24.0248H24.9456C24.2149 22.8012 22.9523 21.9894 21.5335 21.8339L16.529 21.2851C16.479 21.2796 16.4301 21.2666 16.384 21.2465L12.8335 19.7008C12.6446 19.6186 12.4408 19.5762 12.2348 19.5762Z" fill="white" stroke="#6B8AFD"/>
</svg>
