<svg width="41" height="37" viewBox="0 0 41 37" fill="none" xmlns="http://www.w3.org/2000/svg">
<path d="M27.2886 21.2215C29.6171 21.2215 31.4758 19.2527 31.4758 16.8607C31.4758 14.4687 29.6171 12.5 27.2886 12.5C24.96 12.5 23.1013 14.4687 23.1013 16.8607C23.1013 19.2527 24.96 21.2215 27.2886 21.2215Z" fill="white" stroke="#6B8AFD" stroke-width="0.77"/>
<path d="M27.2898 21.4885C23.4103 21.4885 20.2654 24.6335 20.2654 28.5129V29.1019C20.2654 29.7138 20.7614 30.2098 21.3732 30.2098H33.2063C33.8181 30.2098 34.3141 29.7138 34.3141 29.1019V28.5129C34.3141 24.6335 31.1692 21.4885 27.2898 21.4885Z" fill="white" stroke="#6B8AFD" stroke-width="0.77"/>
<path d="M12.7651 21.2217C15.0937 21.2217 16.9524 19.253 16.9524 16.861C16.9524 14.469 15.0937 12.5003 12.7651 12.5003C10.4366 12.5003 8.57789 14.469 8.57789 16.861C8.57789 19.253 10.4366 21.2217 12.7651 21.2217Z" fill="white" stroke="#6B8AFD" stroke-width="0.77"/>
<path d="M12.7663 21.4888C8.88687 21.4888 5.74195 24.6337 5.74195 28.5132V29.1022C5.74195 29.714 6.23795 30.21 6.84979 30.21H18.6829C19.2947 30.21 19.7907 29.714 19.7907 29.1022V28.5132C19.7907 24.6337 16.6458 21.4888 12.7663 21.4888Z" fill="white" stroke="#6B8AFD" stroke-width="0.77"/>
<path d="M20.0278 18.6515C23.0519 18.6515 25.4658 16.0947 25.4658 12.9882C25.4658 9.88176 23.0519 7.32495 20.0278 7.32495C17.0037 7.32495 14.5898 9.88176 14.5898 12.9882C14.5898 16.0947 17.0037 18.6515 20.0278 18.6515Z" fill="white" stroke="#6B8AFD"/>
<path d="M20.0269 18.9988C14.9886 18.9988 10.9043 23.0831 10.9043 28.1213V28.8863C10.9043 29.6809 11.5484 30.3251 12.3431 30.3251H27.7107C28.5053 30.3251 29.1494 29.6809 29.1494 28.8863V28.1213C29.1494 23.0831 25.0651 18.9988 20.0269 18.9988Z" fill="white" stroke="#6B8AFD"/>
</svg>
