<svg width="41" height="37" viewBox="0 0 41 37" fill="none" xmlns="http://www.w3.org/2000/svg">
<path d="M19.3488 7.89883L9.08804 18.3063C8.60568 18.7955 8.72698 19.6185 9.32934 19.9433L22.456 27.0207C22.85 27.2332 23.3345 27.1597 23.6501 26.8397L27.7618 22.6692C28.0773 22.3492 28.1497 21.8577 27.9403 21.458L20.9627 8.14359C20.6425 7.53262 19.8312 7.40957 19.3488 7.89883Z" fill="white"/>
<path fill-rule="evenodd" clip-rule="evenodd" d="M8.97203 20.625C7.91792 20.0567 7.70564 18.6165 8.54977 17.7603L18.8105 7.35287C19.6547 6.49666 21.0746 6.71199 21.6349 7.78119L28.6125 21.0956C28.979 21.795 28.8522 22.6551 28.3 23.2151L24.1883 27.3856C23.6362 27.9457 22.7882 28.0743 22.0987 27.7025L8.97203 20.625ZM9.62631 18.8523C9.50572 18.9746 9.53605 19.1803 9.68664 19.2615L22.8133 26.339C22.9118 26.3921 23.0329 26.3737 23.1118 26.2937L27.2235 22.1232C27.3024 22.0432 27.3205 21.9203 27.2681 21.8204L20.2906 8.50599C20.2105 8.35324 20.0077 8.32249 19.8871 8.4448L9.62631 18.8523Z" fill="white"/>
<path fill-rule="evenodd" clip-rule="evenodd" d="M24.0655 16.3927C20.8345 18.1079 18.3068 21.5833 17.455 23.1047C17.3166 23.3519 17.0069 23.4385 16.7631 23.2982C16.5194 23.1578 16.434 22.8436 16.5724 22.5964C17.4707 20.9918 20.1197 17.3254 23.5948 15.4806C23.8431 15.3488 24.1498 15.4461 24.2798 15.698C24.4097 15.9499 24.3138 16.2609 24.0655 16.3927Z" fill="#6B8AFD"/>
<path fill-rule="evenodd" clip-rule="evenodd" d="M11.1752 17.4639C11.3352 17.2305 11.6514 17.1729 11.8815 17.3351L23.1976 25.3148C23.4277 25.4771 23.4846 25.7979 23.3246 26.0313C23.1646 26.2647 22.8483 26.3224 22.6182 26.1601L11.3022 18.1804C11.072 18.0181 11.0152 17.6974 11.1752 17.4639Z" fill="#6B8AFD"/>
<path fill-rule="evenodd" clip-rule="evenodd" d="M14.8719 13.7028C15.0701 13.5018 15.3914 13.5018 15.5896 13.7028L25.0839 23.3329C25.2821 23.5339 25.2821 23.8598 25.0839 24.0608C24.8858 24.2619 24.5644 24.2619 24.3662 24.0608L14.8719 14.4308C14.6737 14.2298 14.6737 13.9039 14.8719 13.7028Z" fill="#6B8AFD"/>
<path fill-rule="evenodd" clip-rule="evenodd" d="M18.8217 9.79129C19.0553 9.63424 19.3702 9.69901 19.525 9.93598L27.055 21.4595C27.2098 21.6964 27.146 22.0159 26.9123 22.1729C26.6787 22.33 26.3638 22.2652 26.209 22.0282L18.679 10.5047C18.5242 10.2678 18.588 9.94835 18.8217 9.79129Z" fill="#6B8AFD"/>
<path d="M24.8036 28.6959C24.5217 28.4099 24.5217 27.9463 24.8036 27.6604L28.9003 23.5051C29.1823 23.2191 29.6393 23.2191 29.9213 23.5051C30.2032 23.791 30.2032 24.2546 29.9213 24.5406L25.8245 28.6959C25.5426 28.9818 25.0855 28.9818 24.8036 28.6959Z" fill="white"/>
<path d="M30.4228 25.4685C30.8192 25.0665 31.4814 25.0646 31.7227 25.5777C31.7619 25.6611 31.7976 25.7467 31.8296 25.8341C31.9814 26.2485 32.0477 26.6975 32.0249 27.1557C32.0021 27.6138 31.8905 28.072 31.6966 28.5041C31.5026 28.9362 31.2301 29.3337 30.8946 29.674C30.5591 30.0144 30.1671 30.2908 29.7411 30.4875C29.3151 30.6842 28.8634 30.7973 28.4117 30.8205C27.9601 30.8437 27.5173 30.7764 27.1088 30.6224C27.0226 30.59 26.9383 30.5538 26.856 30.514C26.3501 30.2692 26.352 29.5975 26.7484 29.1955L30.4228 25.4685Z" fill="white"/>
</svg>
