<svg width="14" height="14" viewBox="0 0 14 14" fill="none" xmlns="http://www.w3.org/2000/svg">
<path id="Star 2" d="M6.04894 1.49053C6.3483 0.569218 7.6517 0.569217 7.95106 1.49053L8.79611 4.09134C8.92999 4.50336 9.31394 4.78232 9.74717 4.78232H12.4818C13.4505 4.78232 13.8533 6.02194 13.0696 6.59134L10.8572 8.19873C10.5067 8.45337 10.3601 8.90474 10.494 9.31677L11.339 11.9176C11.6384 12.8389 10.5839 13.605 9.80017 13.0356L7.58779 11.4282C7.2373 11.1736 6.7627 11.1736 6.41221 11.4282L4.19983 13.0356C3.41612 13.605 2.36164 12.8389 2.66099 11.9176L3.50604 9.31677C3.63992 8.90474 3.49326 8.45338 3.14277 8.19873L0.930391 6.59134C0.146678 6.02194 0.549452 4.78232 1.51818 4.78232H4.25283C4.68606 4.78232 5.07001 4.50336 5.20389 4.09134L6.04894 1.49053Z" stroke="#4A6285"/>
</svg>
