<svg width="34" height="34" viewBox="0 0 34 34" fill="none" xmlns="http://www.w3.org/2000/svg">
<g id="&#235;&#178;&#168;&#235;&#161;&#156;&#234;&#183;&#184;">
<rect id="Rectangle 2604" x="0.0351562" y="0.446289" width="33" height="33" rx="7" fill="#1EC997"/>
<path id="Vector" d="M7.45557 13.0897C7.61944 12.9193 10.7987 9.64832 12.4243 9.26156C12.6079 9.21568 12.9946 9.12391 13.4338 9.26156C14.1287 9.47788 14.5023 10.0941 14.64 10.3366C15.8789 12.4146 15.9379 18.5632 17.262 18.9566C18.3698 19.2909 20.71 15.6856 20.238 13.9222C20.1987 13.7715 20.0938 13.3913 19.7595 13.1487C19.0515 12.6309 17.9437 13.175 17.8257 13.2405C18.0355 12.5653 18.4681 11.5427 19.4055 10.6512C19.7595 10.3104 21.3786 8.76993 23.3058 9.13046C23.5483 9.17635 24.4333 9.34023 25.0298 10.081C25.6656 10.8676 25.6263 11.8508 25.6066 12.2704C25.4559 15.6528 18.632 26.1606 14.9349 24.6726C13.7943 24.2137 13.2765 22.752 12.7324 21.1591C12.0441 19.1467 11.4607 15.6659 10.6807 14.2828C10.5365 14.0271 10.2743 13.6207 9.8154 13.5093C9.09434 13.3388 8.38639 14.0402 8.2094 14.2238L7.45557 13.0897Z" fill="white"/>
</g>
</svg>
