<svg width="21" height="20" viewBox="0 0 21 20" fill="none" xmlns="http://www.w3.org/2000/svg">
<g id="verify">
<path id="Vector" d="M18.2148 8.94997L17.0814 7.6333C16.8648 7.3833 16.6898 6.91663 16.6898 6.5833V5.16663C16.6898 4.2833 15.9648 3.5583 15.0814 3.5583H13.6648C13.3398 3.5583 12.8648 3.3833 12.6148 3.16663L11.2981 2.0333C10.7231 1.54163 9.78145 1.54163 9.19811 2.0333L7.88978 3.17497C7.63978 3.3833 7.16478 3.5583 6.83978 3.5583H5.39811C4.51478 3.5583 3.78978 4.2833 3.78978 5.16663V6.59163C3.78978 6.91663 3.61478 7.3833 3.40645 7.6333L2.28145 8.9583C1.79811 9.5333 1.79811 10.4666 2.28145 11.0416L3.40645 12.3666C3.61478 12.6166 3.78978 13.0833 3.78978 13.4083V14.8333C3.78978 15.7166 4.51478 16.4416 5.39811 16.4416H6.83978C7.16478 16.4416 7.63978 16.6166 7.88978 16.8333L9.20645 17.9666C9.78145 18.4583 10.7231 18.4583 11.3064 17.9666L12.6231 16.8333C12.8731 16.6166 13.3398 16.4416 13.6731 16.4416H15.0898C15.9731 16.4416 16.6981 15.7166 16.6981 14.8333V13.4166C16.6981 13.0916 16.8731 12.6166 17.0898 12.3666L18.2231 11.05C18.7064 10.475 18.7064 9.52497 18.2148 8.94997ZM13.7148 8.42497L9.68978 12.45C9.57311 12.5666 9.41478 12.6333 9.24811 12.6333C9.08145 12.6333 8.92311 12.5666 8.80645 12.45L6.78978 10.4333C6.54811 10.1916 6.54811 9.79163 6.78978 9.54997C7.03145 9.3083 7.43145 9.3083 7.67311 9.54997L9.24811 11.125L12.8314 7.54163C13.0731 7.29997 13.4731 7.29997 13.7148 7.54163C13.9564 7.7833 13.9564 8.1833 13.7148 8.42497Z" fill="#359AFF"/>
</g>
</svg>
